<svg xmlns="http://www.w3.org/2000/svg" width="128" height="128" xml:space="preserve"><path fill="#c89344" d="M114.932 76.141H88.104v-4h23.867l.051-.142 1.526.105c.232.019.464.036.698.036 4.529 0 8.215-3.646 8.215-8.128 0-4.416-3.496-7.977-7.958-8.107l-2.187-.063.258-2.172c.103-.859.152-1.639.152-2.383 0-11.094-9.11-20.119-20.309-20.119-1.81 0-3.66.258-5.498.767l-2.202.609-.313-2.263C82.336 15.298 69.249 4 53.966 4 37.017 4 23.227 17.66 23.227 34.449l.005 2.003-1.775.201C12.382 37.68 5.539 45.28 5.539 54.333c0 9.819 8.064 17.808 17.976 17.808h6.356v4h-6.356c-12.118 0-21.976-9.783-21.976-21.808 0-10.5 7.503-19.403 17.721-21.387C20.055 14.645 35.318 0 53.966 0 70.497 0 84.757 11.713 88 27.583a24.154 24.154 0 0 1 4.418-.415c13.403 0 24.309 10.82 24.309 24.119 0 .282-.006.566-.018.856 5.61 1.117 9.752 5.984 9.752 11.869 0 6.458-5.109 11.752-11.524 12.109l-.005.02z"/><path fill="#c89344" d="M93.111 128h-4V96.968l.591-.587c7.124-7.077 11.048-16.48 11.048-26.477 0-20.674-16.973-37.494-37.836-37.494-20.864 0-37.839 16.82-37.839 37.494 0 .57.021 1.133.045 1.698l.025.586-11.424 19.62h7.777v17.59c0 4.771 3.92 8.652 8.74 8.652H49.25V128h-4v-5.949H30.239c-7.025 0-12.74-5.676-12.74-12.652v-13.59H6.763l14.338-24.622a36.357 36.357 0 0 1-.025-1.282c0-22.88 18.769-41.494 41.839-41.494 23.068 0 41.836 18.614 41.836 41.494 0 10.79-4.127 20.955-11.639 28.716V128z"/><path fill="#c89344" d="m53.889 100.663-3.447-1.897 7.584-22.649h-24.05l35.615-43.72 3.447 1.898-7.585 22.652h24.05l-35.614 43.716zM42.393 72.116h21.19l-5.864 17.512 23.365-28.682H59.895l5.864-17.514-23.366 28.684z"/></svg>