<svg version="1.1" id="Layer_1" xmlns="http://www.w3.org/2000/svg" x="0" y="0" viewBox="0 0 500 500" style="enable-background:new 0 0 500 500" xml:space="preserve"><style>.st0{fill: transparent}.st1{fill: transparent}</style><path class="st0" d="m298.914 294.117-12.564-17.166a101.728 101.728 0 0 0 18.948-9.618h41.293c33.479 0 60.62 27.185 60.62 60.72V495H119.085v-52.45l177.097-130.687c5.653-4.138 6.877-12.083 2.732-17.746z"/><path class="st1" d="M352.041 181.423c0-56.449-45.686-102.209-102.041-102.209s-102.041 45.76-102.041 102.209c0 44.721 28.677 82.727 68.614 96.592l-19.116 13.991c-9.22 6.748-11.224 19.692-4.476 28.913l1.362 1.862a8.015 8.015 0 0 1-1.734 11.202l-46.421 33.815v-19.935h-53.4v79.146c0 8.583 6.947 15.542 15.515 15.542h10.782l177.096-130.687c5.653-4.138 6.877-12.082 2.733-17.746l-12.565-17.168c38.406-14.672 65.692-51.905 65.692-95.527z"/><path class="st0" d="M153.408 267.332h41.293a101.61 101.61 0 0 0 21.878 10.679l-19.122 13.995c-9.22 6.748-11.224 19.692-4.476 28.913l1.362 1.862a8.016 8.016 0 0 1-1.734 11.202l-46.421 33.815v-19.935h-53.4v-19.81c0-33.535 27.141-60.721 60.62-60.721z"/><path class="st1" d="M353.813 347.862h53.398v147.137h-53.398z"/><path d="M217.79 221.566h67.935a8.786 8.786 0 0 0 8.786-8.786v-2.929c0-11.053-8.96-20.013-20.013-20.013h-45.482c-11.053 0-20.013 8.96-20.013 20.013v2.929a8.787 8.787 0 0 0 8.787 8.786z" style="fill: transparent"/><path d="M233.465 16.535a5 5 0 0 1 5-5H245V5a5 5 0 0 1 10 0v6.535h6.534a5 5 0 1 1 0 10H255v6.534a5 5 0 1 1-10 0v-6.534h-6.535a5 5 0 0 1-5-5zm-71.128 5h6.535v6.534a5 5 0 0 0 10 0v-6.534h6.535a5 5 0 0 0 0-10h-6.535V5a5 5 0 0 0-10 0v6.535h-6.535a5 5 0 0 0 0 10zm152.257 0h6.535v6.534a5 5 0 1 0 10 0v-6.534h6.534a5 5 0 1 0 0-10h-6.534V5a5 5 0 1 0-10 0v6.535h-6.535a5 5 0 1 0 0 10zM87.789 427.009v-98.957c0-36.238 29.437-65.72 65.62-65.72h26.365c-22.891-19.963-36.814-49.243-36.814-80.909 0-59.115 48.018-107.209 107.041-107.209s107.041 48.094 107.041 107.209c0 22.152-6.69 43.414-19.349 61.487a107.827 107.827 0 0 1-17.465 19.421h26.364c36.183 0 65.62 29.482 65.62 65.72v148.606a5 5 0 0 1-5 5 5 5 0 0 1-5-5V352.862h-43.398v123.796a5 5 0 0 1-5 5 5 5 0 0 1-5-5V308.362a5 5 0 0 1 5-5 5 5 0 0 1 5 5v34.5h43.398v-14.811c0-30.724-24.951-55.72-55.62-55.72H306.76a106.759 106.759 0 0 1-12.638 6.772l8.827 12.06c5.766 7.879 4.055 18.975-3.814 24.734l-175.05 129.177v31.584a5 5 0 1 1-10 0V447.55h-5.782c-11.311 0-20.514-9.215-20.514-20.541zm207.09-129.939-12.563-17.166-.002-.002-3.227-4.409a7.68 7.68 0 0 0-3.603-2.698 7.695 7.695 0 0 0-7.15 1.018l-15.289 11.19-26.943 19.719a4.98 4.98 0 0 1-2.949.965 5 5 0 0 1-2.957-9.035l22.909-16.766-2.398-3.277a8.146 8.146 0 0 0-.52-.64c-.022-.024-.046-.045-.068-.069a8.138 8.138 0 0 0-8.582-2.181l-.016.005c-.205.07-.406.155-.607.242-.049.021-.099.038-.147.06-.153.07-.302.155-.452.235-.091.049-.184.091-.273.144-.085.05-.166.11-.249.164-.145.093-.291.182-.431.284l-28.951 21.188c-6.98 5.108-8.503 14.944-3.395 21.925l1.362 1.861a12.923 12.923 0 0 1 2.359 9.679 12.929 12.929 0 0 1-5.176 8.512l-46.43 33.821a5 5 0 0 1-7.944-4.041v-14.936H97.789v74.146c0 5.813 4.717 10.541 10.515 10.541h9.137l175.772-129.71a7.708 7.708 0 0 0 1.666-10.769zm-79.109-24.664 7.684-5.624c.451-.33.915-.631 1.386-.913.158-.095.321-.179.481-.269.31-.173.621-.341.937-.494a17.308 17.308 0 0 1 1.442-.621c.254-.097.508-.194.765-.279.217-.072.437-.131.655-.195a17.857 17.857 0 0 1 3.263-.625c.172-.017.344-.036.516-.047.328-.022.656-.034.986-.038.082-.001.164-.009.245-.009.171 0 .341.01.512.015a18.873 18.873 0 0 1 1.903.152c.127.017.254.02.381.04.082.013.161.036.243.05a17.75 17.75 0 0 1 2.756.694 18.052 18.052 0 0 1 1.635.636 18.08 18.08 0 0 1 3.251 1.874c.169.123.334.252.498.381.29.226.573.462.85.708.112.1.226.196.336.299.357.332.7.682 1.033 1.047.084.092.165.186.247.28.347.396.685.804 1.001 1.237l2.399 3.277 11.254-8.237c7.869-5.759 18.963-4.033 24.729 3.844l.927 1.267c35.417-15.172 58.957-50.634 58.957-89.43 0-53.601-43.532-97.209-97.041-97.209s-97.041 43.608-97.041 97.209c-.001 40.528 25.131 76.763 62.81 90.98zM97.789 328.052v14.811h43.398v-34.5a5 5 0 1 1 10 0v49.607l38.477-28.028a2.991 2.991 0 0 0 1.19-1.966 2.995 2.995 0 0 0-.547-2.242l-1.362-1.861c-8.365-11.431-5.872-27.536 5.558-35.901l11.827-8.656a106.507 106.507 0 0 1-13.079-6.983h-39.843c-30.669-.001-55.619 24.995-55.619 55.719zm206.685-182.549a5 5 0 0 0-7.023.818 12.37 12.37 0 0 1-9.752 4.725 12.368 12.368 0 0 1-9.751-4.725 5 5 0 1 0-7.841 6.205c4.284 5.415 10.696 8.52 17.593 8.52 6.898 0 13.31-3.105 17.594-8.52a5.001 5.001 0 0 0-.82-7.023zm-74.579 7.023a5 5 0 0 0-7.842-6.204 12.368 12.368 0 0 1-9.751 4.725 12.367 12.367 0 0 1-9.751-4.725 5.001 5.001 0 0 0-7.843 6.205c4.284 5.415 10.697 8.52 17.594 8.52 6.897-.001 13.309-3.106 17.593-8.521zm-.878 32.312h45.481c13.792 0 25.013 11.221 25.013 25.013v2.929c0 7.602-6.184 13.786-13.786 13.786H217.79c-7.602 0-13.786-6.184-13.786-13.786v-2.929c-.001-13.792 11.22-25.013 25.013-25.013zm45.481 10h-45.481c-8.278 0-15.013 6.735-15.013 15.013v2.929a3.79 3.79 0 0 0 3.786 3.786h67.935a3.79 3.79 0 0 0 3.786-3.786v-2.929c0-8.278-6.735-15.013-15.013-15.013zm-2.154-70.047 27.345 9.769a5.004 5.004 0 0 0 6.392-3.026 5.002 5.002 0 0 0-3.026-6.391l-27.345-9.769a5 5 0 1 0-3.366 9.417zm-73.715 10.063c.559 0 1.127-.094 1.682-.293l27.345-9.769a5 5 0 1 0-3.365-9.417l-27.345 9.769a4.999 4.999 0 0 0-3.026 6.391 5.004 5.004 0 0 0 4.709 3.319zM440.835 490h-3.813c-2.762 0-5 2.238-5 5s2.238 5 5 5h3.813c2.762 0 5-2.238 5-5s-2.238-5-5-5zm-20.973 0H80.138a5 5 0 1 0 0 10h339.725a5 5 0 1 0-.001-10zm-356.884 0h-3.813a5 5 0 1 0 0 10h3.813a5 5 0 1 0 0-10z" style="fill:#c89344"/></svg>