<svg xmlns="http://www.w3.org/2000/svg" width="128" height="128" xml:space="preserve"><path fill="#C28543" d="M59.64 104.941c-9.278 0-17.985-3.652-24.518-10.283-13.492-13.674-13.499-35.939-.012-49.634 6.51-6.611 15.188-10.267 24.438-10.293 9.339 0 18.034 3.651 24.562 10.282 6.528 6.614 10.128 15.428 10.134 24.817.006 9.381-3.586 18.197-10.117 24.826-6.517 6.611-15.191 10.264-24.427 10.285h-.06zm-.013-66.212c-8.241.023-15.913 3.255-21.668 9.101-11.963 12.146-11.958 31.896.01 44.022 5.776 5.863 13.472 9.094 21.671 9.094v1.998l.052-1.998c8.16-.02 15.827-3.25 21.588-9.096 5.788-5.873 8.974-13.693 8.968-22.018-.006-8.331-3.196-16.149-8.983-22.013-5.773-5.862-13.456-9.09-21.638-9.09z"/><path fill="#C28543" d="M59.621 85.719a15.47 15.47 0 0 1-11.104-4.658c-6.102-6.182-6.104-16.252-.004-22.446a15.498 15.498 0 0 1 11.075-4.661c4.236 0 8.175 1.654 11.131 4.658 2.952 2.989 4.581 6.976 4.583 11.222.003 4.236-1.621 8.225-4.575 11.227-2.955 2.996-6.887 4.65-11.071 4.658h-.035zm.009-27.768a11.553 11.553 0 0 0-8.27 3.468c-4.574 4.647-4.573 12.198.003 16.834a11.51 11.51 0 0 0 8.258 3.469v1.998l.025-1.998a11.524 11.524 0 0 0 8.231-3.467c2.211-2.248 3.429-5.238 3.426-8.42-.002-3.189-1.221-6.179-3.433-8.418a11.479 11.479 0 0 0-8.24-3.466zM59.622 94.822c-.847 0-1.695-.043-2.524-.129l.413-3.977c1.208.127 2.458.141 3.68.049l.301 3.986c-.612.046-1.241.071-1.87.071zm6.21-.797-1.018-3.867a20.065 20.065 0 0 0 3.451-1.254l1.702 3.617a24.237 24.237 0 0 1-4.135 1.504zm-13.049-.177a24.622 24.622 0 0 1-4.094-1.611l1.796-3.572a20.298 20.298 0 0 0 3.42 1.346l-1.122 3.837zm20.979-3.549-2.323-3.254a21.178 21.178 0 0 0 2.804-2.398l2.853 2.801a25.514 25.514 0 0 1-3.334 2.851zm-28.806-.381a24.795 24.795 0 0 1-3.264-2.938l2.927-2.723a20.787 20.787 0 0 0 2.738 2.465l-2.401 3.196zm33.527-4-3.07-2.563a20.893 20.893 0 0 0 2.104-3.025l3.471 1.984a25.175 25.175 0 0 1-2.505 3.604zm-39.488-2.395a25.064 25.064 0 0 1-2.053-3.875l3.684-1.553a21.221 21.221 0 0 0 1.725 3.256l-3.356 2.172zm43.826-5.201-3.766-1.34a21.16 21.16 0 0 0 .926-3.568l3.942.66a24.964 24.964 0 0 1-1.102 4.248zm-47.224-2.847a25.328 25.328 0 0 1-.598-4.344l3.992-.197c.062 1.229.23 2.459.503 3.652l-3.897.889zm44.68-5.743a21.479 21.479 0 0 0-.336-3.68l3.935-.707c.257 1.428.391 2.896.399 4.363l-3.998.024zm-41.156-2.496-3.968-.482c.177-1.455.481-2.899.906-4.292l3.823 1.164a21.49 21.49 0 0 0-.761 3.61zm39.855-4.743a20.82 20.82 0 0 0-1.572-3.332l3.449-2.019a24.955 24.955 0 0 1 1.875 3.97l-3.752 1.381zm-37.712-2.281-3.56-1.819a25.108 25.108 0 0 1 2.333-3.716l3.187 2.414a20.908 20.908 0 0 0-1.96 3.121zm34.005-4.057a20.65 20.65 0 0 0-1.063-1.157 20.83 20.83 0 0 0-1.566-1.44l2.558-3.073a25.748 25.748 0 0 1 3.116 3.081l-3.045 2.589zM45.7 54.352l-2.724-2.926a24.82 24.82 0 0 1 3.465-2.698l2.165 3.36a20.822 20.822 0 0 0-2.906 2.264zm23.912-2.884a20.316 20.316 0 0 0-3.348-1.509l1.302-3.779a24.184 24.184 0 0 1 4.012 1.807l-1.966 3.481zm-17.749-1.087-1.525-3.695a24.086 24.086 0 0 1 4.204-1.301l.828 3.911a20.127 20.127 0 0 0-3.507 1.085zm10.834-1.297a21.075 21.075 0 0 0-3.679-.222l-.108-3.996a24.865 24.865 0 0 1 4.383.265l-.596 3.953zM124.729 62.778c-16.715-23.795-38.812-36.899-62.223-36.899v-3.997c24.751 0 48.01 13.708 65.493 38.599l-3.27 2.297z"/><path fill="#C28543" d="M59.955 106.119c-22.221 0-43.227-12.482-59.147-35.146L0 69.824l.808-1.148C16.728 46.011 37.733 33.53 59.955 33.53c22.224 0 43.23 12.481 59.15 35.146l.808 1.148-.808 1.148c-15.92 22.665-36.927 35.147-59.15 35.147zM4.896 69.824c15.044 20.842 34.551 32.297 55.059 32.297 20.51 0 40.018-11.455 55.062-32.297-15.043-20.841-34.551-32.297-55.062-32.297-20.509 0-40.016 11.456-55.059 32.297z"/></svg>