<svg version="1.1" id="Layer_1" xmlns="http://www.w3.org/2000/svg" x="0" y="0" viewBox="0 0 500 500" style="enable-background:new 0 0 500 500" xml:space="preserve"><style>.st0{fill: transparent}.st2{fill: transparent}.st3{fill: transparent}</style><path class="st2" d="M395.715 129.112V57.176l-14.188 19.283c-5.506 7.483-16.951 6.603-21.247-1.635l-9.204-17.648-9.204 17.648c-4.297 8.238-15.741 9.119-21.247 1.635l-14.188-19.283v71.936h89.278z"/><path d="M429.924 288.352h-28.655c25.528-16.52 42.427-45.271 42.427-77.978 0-35.024-19.379-65.51-47.98-81.299v.037h-89.28v-.029c-24.734 13.657-42.574 38.3-46.942 67.37a97.09 97.09 0 0 1 31.813 26.14h1.853a13.888 13.888 0 0 1 12.776 8.443l15.185 35.637a61.567 61.567 0 0 1 4.928 24.137v8.416h6.64c26.637 0 48.231 21.594 48.231 48.231V462.935l-.021-.039C380.45 479.931 366.596 495 347.915 495h137.031V343.466c.001-30.438-24.634-55.114-55.022-55.114z" style="fill: transparent"/><path class="st2" d="m346.221 375.292-16.829-38.793a40.488 40.488 0 0 1-3.344-16.113V290.81a61.574 61.574 0 0 0-4.928-24.137l-15.184-35.637a13.888 13.888 0 0 0-12.776-8.443h-1.853c-17.705-22.382-45.102-36.745-75.855-36.745-30.753 0-58.15 14.363-75.855 36.745h-1.853a13.888 13.888 0 0 0-12.776 8.443l-15.184 35.637a61.567 61.567 0 0 0-4.928 24.137v29.575a40.472 40.472 0 0 1-3.345 16.113l-16.829 38.793H49.983v87.644l.021-.039C50.453 479.931 64.307 495 82.987 495a32.967 32.967 0 0 0 31.33-22.707l38.14-116.454c16.919 14.549 38.929 23.346 62.994 23.346 24.065 0 46.074-8.797 62.994-23.346l38.14 116.454A32.968 32.968 0 0 0 347.915 495c18.68 0 32.534-15.069 32.983-32.103l.021.039v-87.644h-34.698z"/><path class="st3" d="M221.983 353.709H208.92a7.676 7.676 0 0 1-7.676-7.676v-17.549a7.676 7.676 0 0 1 7.676-7.676h13.063a7.676 7.676 0 0 1 7.676 7.676v17.549a7.676 7.676 0 0 1-7.676 7.676z"/><path class="st0" d="m316.585 472.293-38.14-116.454c-16.919 14.55-38.928 23.346-62.994 23.346-24.065 0-46.074-8.796-62.994-23.346l-38.14 116.454A32.967 32.967 0 0 1 82.987 495h264.928a32.967 32.967 0 0 1-31.33-22.707zM98.215 299.226c-26.638 0-48.232 21.594-48.232 48.231v27.834h34.698l16.829-38.793a40.416 40.416 0 0 0 2.499-7.884c.56-2.7.845-5.457.845-8.229v-21.159h-6.639zM332.688 299.226h-6.64v21.159a40.519 40.519 0 0 0 3.344 16.113l16.829 38.793h34.697v-27.834c.001-26.637-21.593-48.231-48.23-48.231z"/><circle class="st3" cx="388.48" cy="190.607" r="15.441"/><circle class="st3" cx="313.67" cy="190.607" r="15.441"/><path d="M289.9 16.535a5 5 0 0 1 5-5h6.534V5a5 5 0 1 1 10 0v6.535h6.535a5 5 0 1 1 0 10h-6.535v6.534a5 5 0 1 1-10 0v-6.534H294.9a5 5 0 0 1-5-5zm49.641 5h6.534v6.534a5 5 0 1 0 10 0v-6.534h6.534a5 5 0 1 0 0-10h-6.534V5a5 5 0 1 0-10 0v6.535h-6.534a5 5 0 1 0 0 10zm44.64 0h6.534v6.534a5 5 0 1 0 10 0v-6.534h6.535a5 5 0 1 0 0-10h-6.535V5a5 5 0 1 0-10 0v6.535h-6.534a5 5 0 1 0 0 10zm105.765 321.931V495a5 5 0 1 1-10 0V343.466c0-27.633-22.44-50.114-50.022-50.114h-28.655a5 5 0 0 1-2.717-9.198c25.137-16.267 40.144-43.848 40.144-73.78 0-31.54-16.909-60.635-44.223-76.262h-86.781c-18.229 10.426-32.105 26.975-39.153 46.735a5 5 0 1 1-9.418-3.359c7.681-21.538 22.656-39.631 42.314-51.278V57.176a4.999 4.999 0 0 1 9.027-2.963l14.188 19.283c1.58 2.146 4.008 3.26 6.667 3.056 2.657-.205 4.888-1.677 6.12-4.04l9.204-17.647a5 5 0 0 1 8.868 0l9.204 17.648c1.232 2.363 3.463 3.835 6.12 4.04 2.652.204 5.086-.909 6.666-3.056l14.188-19.283a4.999 4.999 0 0 1 9.027 2.963v69.006c29.67 17.575 47.98 49.558 47.98 84.192 0 28.221-11.977 54.565-32.635 72.978h13.863c33.099-.001 60.024 26.966 60.024 60.113zm-99.231-231.152h-79.28v11.798h79.28v-11.798zm0-39.906-5.161 7.014c-3.616 4.914-9.411 7.559-15.487 7.1-6.083-.468-11.398-3.977-14.221-9.386l-4.771-9.148-4.771 9.147c-2.821 5.409-8.138 8.918-14.22 9.386-6.081.459-11.873-2.186-15.489-7.1l-5.161-7.014v29.906h79.28V72.408zm46.494 262.635a5 5 0 0 0-5 5V495a5 5 0 1 0 10 0V340.043a5 5 0 0 0-5-5zm-51.29 12.415v115.479c0 .214-.014.427-.04.635-.82 20.47-17.394 36.428-37.964 36.428a37.888 37.888 0 0 1-36.082-26.15l-35.906-109.636a101.667 101.667 0 0 1-60.475 19.971 101.665 101.665 0 0 1-60.475-19.971L119.069 473.85A37.935 37.935 0 0 1 108.692 490h17.479a5 5 0 0 1 0 10H36.027a5 5 0 0 1 0-10h21.158c-7.149-6.583-11.74-15.905-12.161-26.428a4.947 4.947 0 0 1-.041-.636v-87.645c0-.071.018-.137.021-.207l-.021-27.624c0-29.356 23.879-53.235 53.231-53.235h1.64v-3.416a66.206 66.206 0 0 1 5.328-26.097l15.185-35.637a18.85 18.85 0 0 1 16.836-11.463c19.406-23.394 47.783-36.764 78.248-36.764 30.465 0 58.843 13.371 78.249 36.764a18.848 18.848 0 0 1 16.835 11.463l15.185 35.637a66.231 66.231 0 0 1 5.328 26.097v3.416h1.64c29.351.001 53.231 23.88 53.231 53.233zm-330.936 0L55 370.292h26.4l15.523-35.783a35.285 35.285 0 0 0 2.932-14.124v-16.159h-1.64c-23.838 0-43.232 19.394-43.232 43.232zm101.333-56.648a66.206 66.206 0 0 1 5.328-26.097l8.971-21.055c1.546-3.628 1.186-7.597-.989-10.887-2.175-3.291-5.684-5.178-9.629-5.178h-22.254a8.875 8.875 0 0 0-8.176 5.403l-15.185 35.637a56.275 56.275 0 0 0-4.527 22.177v29.575a45.216 45.216 0 0 1-3.758 18.104l-16.829 38.792-.001.001-15.595 35.949a5.003 5.003 0 0 1-4.589 3.012 5 5 0 0 1-4.584-6.992l12.564-28.96h-22.08v82.148c.01.108.017.217.019.326C55.405 478.038 67.697 490 82.987 490a27.91 27.91 0 0 0 26.579-19.263l38.138-116.449.001-.006 4.358-13.306a85.49 85.49 0 0 0 4.253-26.65V290.81zm116.319 63.352-3.3-10.072a95.506 95.506 0 0 1-4.749-29.763V290.81a56.282 56.282 0 0 0-4.527-22.177l-8.972-21.055a21.486 21.486 0 0 1 1.846-20.321 21.488 21.488 0 0 1 17.972-9.665h9.271c-17.115-17.113-40.169-26.744-64.725-26.744s-47.609 9.631-64.724 26.744h9.271a21.488 21.488 0 0 1 17.972 9.665 21.486 21.486 0 0 1 1.846 20.321l-8.971 21.055a56.275 56.275 0 0 0-4.527 22.177v23.517a95.473 95.473 0 0 1-4.75 29.763l-3.299 10.073a91.67 91.67 0 0 0 57.184 20.023 91.678 91.678 0 0 0 57.182-20.024zm103.284 26.13h-22.073l12.564 28.96a5 5 0 1 1-9.174 3.98l-15.574-35.9c-.008-.017-.019-.032-.026-.05l-16.829-38.793a45.214 45.214 0 0 1-3.758-18.103V290.81a56.282 56.282 0 0 0-4.527-22.177l-15.185-35.637a8.875 8.875 0 0 0-8.177-5.403H270.905c-3.944 0-7.454 1.887-9.629 5.178s-2.535 7.259-.989 10.887l8.972 21.055a66.231 66.231 0 0 1 5.328 26.097v23.517a85.495 85.495 0 0 0 4.253 26.65l4.358 13.305v.002l38.139 116.453A27.907 27.907 0 0 0 347.915 490c15.29 0 27.582-11.962 27.985-27.234.003-.108.009-.215.019-.321v-82.153zm0-32.834c0-23.838-19.394-43.231-43.231-43.231h-1.64v16.159c0 4.889.986 9.641 2.932 14.123l15.523 35.784h26.416v-22.835zM18.868 490h-3.813a5 5 0 0 0 0 10h3.813a5 5 0 0 0 0-10zm215.79-161.516v17.549c0 6.989-5.686 12.675-12.675 12.675H208.92c-6.989 0-12.676-5.686-12.676-12.675v-17.549c0-6.989 5.687-12.676 12.676-12.676h13.063c6.989.001 12.675 5.687 12.675 12.676zm-10 0c0-1.476-1.2-2.676-2.675-2.676H208.92a2.678 2.678 0 0 0-2.676 2.676v17.549c0 1.475 1.2 2.675 2.676 2.675h13.063c1.475 0 2.675-1.2 2.675-2.675v-17.549zM388.48 211.048c-11.271 0-20.441-9.17-20.441-20.441s9.17-20.441 20.441-20.441c11.271 0 20.44 9.17 20.44 20.441s-9.169 20.441-20.44 20.441zm10.441-20.441c0-5.757-4.684-10.441-10.44-10.441-5.758 0-10.441 4.684-10.441 10.441s4.684 10.441 10.441 10.441c5.756 0 10.44-4.683 10.44-10.441zm-105.692 0c0-11.271 9.17-20.441 20.44-20.441 11.271 0 20.441 9.17 20.441 20.441s-9.17 20.441-20.441 20.441c-11.27 0-20.44-9.17-20.44-20.441zm10 0c0 5.757 4.684 10.441 10.44 10.441 5.758 0 10.441-4.684 10.441-10.441s-4.684-10.441-10.441-10.441c-5.756.001-10.44 4.684-10.44 10.441z" style="fill:#c89344"/></svg>