<svg version="1.1" id="Layer_1" xmlns="http://www.w3.org/2000/svg" x="0" y="0" viewBox="0 0 500 500" style="enable-background:new 0 0 500 500" xml:space="preserve"><style>.st0{fill: transparent}.st1{fill: transparent}.st2{fill: transparent}</style><path class="st2" d="M357.395 160.35h-61.374l-30.471 27.947a10.01 10.01 0 0 1-9.874 2.133 9.998 9.998 0 0 1-6.696-7.563l-7.972-40.32-12.4 15.183a10 10 0 0 1-7.745 3.674h-66.239c-.36 3.493-.547 7.038-.547 10.626 0 56.449 45.664 102.209 101.992 102.209s101.992-45.76 101.992-102.209a103.32 103.32 0 0 0-.666-11.68z"/><path d="M370.143 140.35h-78.014a10 10 0 0 0-6.76 2.63l-20.222 18.547-8.639-43.695a10.002 10.002 0 0 0-17.556-4.386l-22.835 27.958h-74.122c-5.522 0-10 4.477-10 10s4.478 10 10 10h78.866a10 10 0 0 0 7.745-3.674l12.4-15.183 7.972 40.32a10 10 0 0 0 16.57 5.43l30.471-27.947h74.122c5.522 0 10-4.477 10-10s-4.476-10-9.998-10z" style="fill: transparent"/><path class="st2" d="M256.069 69.821c-45.681 0-84.346 30.097-97.332 71.583h57.38l22.835-27.958a10.002 10.002 0 0 1 17.556 4.386l8.639 43.695 20.222-18.547a10 10 0 0 1 6.76-2.63h60.93c-13.307-40.939-51.697-70.529-96.99-70.529z"/><path class="st0" d="M136.118 414.403H376.02V495H136.118zM342.896 257.94h-31.602c-15.919 10.299-34.868 16.3-55.226 16.3s-39.306-6.001-55.226-16.3H169.24c-33.463 0-60.591 27.185-60.591 60.72v75.634c0 11.106 9.002 20.109 20.106 20.109H383.379c11.104 0 20.106-9.003 20.106-20.109V318.66c.002-33.535-27.125-60.72-60.589-60.72z"/><path class="st2" d="M346.199 341.33v22.391H165.711V341.33h-57.06v52.963c0 11.106 9.002 20.109 20.106 20.109h254.624c11.104 0 20.106-9.003 20.106-20.109V341.33h-57.288z"/><path class="st1" d="M311.902 296.639h-21.421c-19.005 0-34.412 15.406-34.412 34.411 0-19.005-15.406-34.411-34.412-34.411h-21.421c-19.005 0-34.411 15.406-34.411 34.411v32.671h180.488V331.05c0-19.004-15.406-34.411-34.411-34.411zM165.825 414.403h180.488V495H165.825z"/><path class="st2" d="M256.069 457.447h-90.244V495h180.488v-37.553z"/><path d="M251.069 10.39V5a5 5 0 1 1 10 0v5.39a5 5 0 1 1-10 0zm5 44.797a5 5 0 0 0 5-5V29.442a5 5 0 1 0-10 0v20.745a5 5 0 0 0 5 5zM223.281 15.39a5 5 0 0 0 5-5V5a5 5 0 1 0-10 0v5.39a5 5 0 0 0 5 5zm0 45.841a5 5 0 0 0 5-5V29.442a5 5 0 1 0-10 0v26.789a5 5 0 0 0 5 5zM190.492 15.39a5 5 0 0 0 5-5V5a5 5 0 1 0-10 0v5.39a5 5 0 0 0 5 5zm0 59.431a5 5 0 0 0 5-5V29.442a5 5 0 1 0-10 0v40.379a5 5 0 0 0 5 5zM321.646 15.39a5 5 0 0 0 5-5V5a5 5 0 1 0-10 0v5.39a5 5 0 0 0 5 5zm0 59.431a5 5 0 0 0 5-5V29.442a5 5 0 1 0-10 0v40.379a5 5 0 0 0 5 5zM288.857 15.39a5 5 0 0 0 5-5V5a5 5 0 1 0-10 0v5.39a5 5 0 0 0 5 5zm0 45.841a5 5 0 0 0 5-5V29.442a5 5 0 1 0-10 0v26.789a5 5 0 0 0 5 5zm-174.3 30.587h6.534v6.534a5 5 0 1 0 10 0v-6.534h6.535a5 5 0 1 0 0-10h-6.535v-6.535a5 5 0 1 0-10 0v6.535h-6.534a5 5 0 1 0 0 10zm259.956 0h6.535v6.534a5 5 0 1 0 10 0v-6.534h6.534a5 5 0 1 0 0-10h-6.534v-6.535a5 5 0 1 0-10 0v6.535h-6.535a5 5 0 1 0 0 10zM103.651 394.293V318.66c0-36.238 29.424-65.72 65.591-65.72h16.66c-21.05-18.332-34.928-44.793-36.64-74.675a5 5 0 0 1 9.984-.572c1.832 31.999 19.05 59.675 44.197 75.985.038.023.079.04.116.064a96.443 96.443 0 0 0 35.093 13.922l.2.037c2.148.388 4.313.7 6.49.941l.513.057c1.065.113 2.132.211 3.202.288l.176.011c.973.069 1.949.118 2.926.157.264.01.529.021.793.029 1.023.033 2.048.055 3.074.055l.043.001.043-.001c1.027 0 2.051-.022 3.074-.055.265-.008.529-.019.793-.029a98.112 98.112 0 0 0 2.926-.157l.176-.011a94.909 94.909 0 0 0 3.202-.288l.513-.057a97.11 97.11 0 0 0 6.49-.941l.2-.037a96.45 96.45 0 0 0 35.093-13.922c.037-.024.079-.041.116-.064 25.147-16.31 42.365-43.986 44.197-75.985a5 5 0 0 1 9.984.572c-1.712 29.882-15.59 56.343-36.64 74.675h16.66c36.167 0 65.591 29.482 65.591 65.72v75.637c0 13.844-11.263 25.106-25.106 25.106h-2.36v60.694a5 5 0 1 1-10 0v-60.694h-19.707v60.141a5 5 0 1 1-10 0v-17.096H261.07v17.096a5 5 0 1 1-10 0v-17.096h-80.244v17.096a5 5 0 1 1-10 0v-60.141h-19.707v60.141a5 5 0 1 1-10 0v-60.141h-2.357c-13.847 0-25.111-11.264-25.111-25.11zm147.418 58.154v-33.044h-80.244v33.044h80.244zm90.244-33.044h-80.244v33.044h80.244v-33.044zm57.174-25.106V346.33h-47.174v17.391a5 5 0 0 1-5 5H165.711a5 5 0 0 1-5-5V346.33h-47.06v47.963c0 8.331 6.778 15.109 15.109 15.109h254.619c8.332.001 15.108-6.776 15.108-15.105zm-137.418-35.576h80.13v-30.178c-1.277-15.047-13.924-26.904-29.297-26.904H290.48c-16.218 0-29.411 13.194-29.411 29.411v27.671zm-10-27.671c0-16.217-13.193-29.411-29.411-29.411h-21.422c-16.218 0-29.411 13.194-29.411 29.411v27.671h80.244V331.05zm-137.418-12.39v17.671h47.06v-46.755a5 5 0 1 1 10 0v15.411c7.227-8.177 17.781-13.347 29.525-13.347h21.422c14.771 0 27.664 8.173 34.411 20.23 6.748-12.057 19.64-20.23 34.411-20.23h21.422c11.619 0 22.077 5.057 29.297 13.083v-15.147a5 5 0 1 1 10 0v38.626c.068.942.114 1.89.114 2.849v5.28h47.174V318.66c0-30.724-24.938-55.72-55.591-55.72h-30.138a106.5 106.5 0 0 1-27.178 12.149l-.009.003a106.596 106.596 0 0 1-14.444 3.085l-.323.044a106.98 106.98 0 0 1-3.174.391c-.167.018-.333.038-.5.055-1.142.118-2.288.22-3.44.302l-.441.027a108.982 108.982 0 0 1-3.815.186 107.48 107.48 0 0 1-3.317.058l-.046.001-.046-.001c-1.11 0-2.215-.024-3.317-.058-.295-.009-.59-.021-.885-.032-.98-.039-1.957-.089-2.93-.154l-.441-.027a108.208 108.208 0 0 1-3.44-.302c-.167-.017-.333-.037-.5-.055a107.048 107.048 0 0 1-3.175-.391l-.322-.043a105.96 105.96 0 0 1-7.144-1.264l-.148-.031a105.841 105.841 0 0 1-7.152-1.79l-.009-.003a106.554 106.554 0 0 1-27.178-12.149h-30.138c-30.657-.001-55.595 24.995-55.595 55.719zM446.904 490h-3.813a5 5 0 1 0 0 10h3.813a5 5 0 1 0 0-10zm-20.972 0H86.207a5 5 0 1 0 0 10h339.725a5 5 0 1 0 0-10zm-356.885 0h-3.813a5 5 0 1 0 0 10h3.813a5 5 0 1 0 0-10zm187.022-265.293c-8.971 0-17.313 4.04-22.885 11.084a5 5 0 0 0 7.841 6.205c3.665-4.632 9.147-7.288 15.043-7.288s11.378 2.656 15.043 7.288a4.99 4.99 0 0 0 3.924 1.898 5 5 0 0 0 3.918-8.103c-5.571-7.044-13.913-11.084-22.884-11.084zm41.897-59.357-29.036 26.632a14.975 14.975 0 0 1-10.14 3.946h-.001c-1.588 0-3.16-.251-4.671-.746a15.02 15.02 0 0 1-10.044-11.344l-5.912-29.902-5.683 6.958a14.94 14.94 0 0 1-11.617 5.511h-78.866c-8.271 0-15-6.729-15-15s6.729-15 15-15h71.75l21.335-26.121c3.661-4.48 9.653-6.467 15.256-5.063 5.605 1.4 9.954 5.97 11.077 11.641l6.912 34.965 13.663-12.531a14.966 14.966 0 0 1 10.14-3.946h78.014c8.271 0 15 6.729 15 15s-6.729 15-15 15h-72.177zm-1.945-10h74.122c2.757 0 5-2.243 5-5s-2.243-5-5-5h-78.014a4.99 4.99 0 0 0-3.38 1.315l-20.222 18.547a5.002 5.002 0 0 1-8.286-2.715l-8.639-43.695a5.02 5.02 0 0 0-3.693-3.881 5.018 5.018 0 0 0-5.085 1.688l-22.835 27.957a4.997 4.997 0 0 1-3.872 1.837h-74.122c-2.757 0-5 2.243-5 5s2.243 5 5 5h78.866c1.508 0 2.919-.67 3.873-1.837l12.4-15.182a4.997 4.997 0 0 1 5.084-1.688 4.999 4.999 0 0 1 3.693 3.881l7.972 40.32a5.006 5.006 0 0 0 3.348 3.781 5.054 5.054 0 0 0 4.938-1.067l30.47-27.947a5.013 5.013 0 0 1 3.382-1.314zm-131.975-27.689a4.999 4.999 0 0 0 6.78-2.009c17.02-31.354 49.683-50.831 85.243-50.831 35.558 0 68.22 19.477 85.239 50.831a5 5 0 1 0 8.789-4.771c-18.771-34.579-54.8-56.06-94.028-56.06-39.23 0-75.262 21.481-94.032 56.06a5 5 0 0 0 2.009 6.78z" style="fill:#c89344"/></svg>