<svg version="1.1" id="Layer_1" xmlns="http://www.w3.org/2000/svg" x="0" y="0" viewBox="0 0 500 500" style="enable-background:new 0 0 500 500" xml:space="preserve"><style>.st1{fill: transparent}.st3{fill: transparent}</style><path class="st1" d="M244.726 69.075V5H214.84v88.688h35.6v64.723c0 2.585 3.622 3.178 4.446.727l30.275-90.063h-40.435z"/><path d="M472.95 333.733a24.992 24.992 0 0 0-8.719-17.076L317.554 191.81c-10.515-8.947-26.293-7.681-35.242 2.834a24.88 24.88 0 0 0-5.771 13.139c36.858 9.875 65.52 39.818 73.607 77.429l62.572 53.259-50.321 48.388a22.614 22.614 0 0 1-15.674 6.314h-41.203c-15.998 10.354-35.058 16.365-55.522 16.365s-39.524-6.012-55.522-16.365h-41.203a22.612 22.612 0 0 1-15.674-6.314L87.28 338.471l62.572-53.259c8.087-37.611 36.749-67.554 73.607-77.429a24.88 24.88 0 0 0-5.771-13.139c-8.949-10.515-24.727-11.781-35.242-2.834L35.77 316.657a25 25 0 0 0-2.778 35.306l92.128 107.484a12.265 12.265 0 0 1 2.953 7.984V495h243.853v-27.568c0-2.928 1.048-5.76 2.953-7.984l92.129-107.484a24.996 24.996 0 0 0 5.942-18.231z" style="fill: transparent"/><path d="m368.004 234.752-50.45-42.941c-10.515-8.947-26.293-7.681-35.242 2.834a24.876 24.876 0 0 0-5.771 13.139 102.438 102.438 0 0 0-26.54-3.484 102.43 102.43 0 0 0-26.576 3.494l.036-.01a24.88 24.88 0 0 0-5.771-13.139c-8.949-10.515-24.727-11.781-35.242-2.834l-50.45 42.941 25.675 27.637c-6.487 13.469-10.123 28.574-10.123 44.53 0 56.675 45.869 102.619 102.451 102.619 56.582 0 102.451-45.944 102.451-102.619 0-15.956-3.636-31.062-10.123-44.53l25.675-27.637z" style="fill: transparent"/><path class="st1" d="M94.905 29.677 159.8 94.572l-26.05 26.048 47.359 47.359c1.892 1.892-.325 4.976-2.721 3.785l-88.054-43.748 29.587-29.587-46.885-46.884 21.869-21.868zM405.096 29.677l-64.895 64.895 26.049 26.049-47.359 47.359c-1.892 1.892.325 4.976 2.721 3.785l88.054-43.748L380.08 98.43l46.885-46.885-21.869-21.868z"/><path class="st3" d="M199.164 358.7c4.521 3.928 11.369 3.448 15.297-1.072a47.748 47.748 0 0 1 35.54-16.453 47.752 47.752 0 0 1 35.54 16.453c3.928 4.52 10.776 5 15.297 1.072 4.52-3.929 5-10.777 1.072-15.297a69.425 69.425 0 0 0-51.908-23.914 69.422 69.422 0 0 0-51.908 23.914c-3.93 4.52-3.45 11.369 1.07 15.297z"/><circle class="st3" cx="206.373" cy="275.74" r="17.988"/><circle class="st3" cx="293.628" cy="275.74" r="17.988"/><path d="M391.786 215.834v-6.535h-6.535a5 5 0 0 1 0-10h6.535v-6.535a5 5 0 0 1 10 0v6.535h6.535a5 5 0 0 1 0 10h-6.535v6.535a5 5 0 0 1-10 0zm-288.571 5a5 5 0 0 0 5-5v-6.535h6.535a5 5 0 0 0 0-10h-6.535v-6.535a5 5 0 0 0-10 0v6.535H91.68a5 5 0 0 0 0 10h6.535v6.535a5 5 0 0 0 5 5zM112.85 98.43l-26.051 26.051a5 5 0 0 0 1.311 8.014l88.054 43.748a7.337 7.337 0 0 0 9.254-2.296 7.335 7.335 0 0 0-.772-9.502l-43.823-43.824 22.514-22.513a4.998 4.998 0 0 0 0-7.072L98.44 26.141a5.001 5.001 0 0 0-7.071 7.071l61.359 61.359-22.514 22.513a4.998 4.998 0 0 0 0 7.072l35.955 35.955-67.381-33.477 24.668-24.668a5 5 0 0 0 0-7.071L76.572 48.009a5.001 5.001 0 0 0-7.071 7.071l43.349 43.35zm207.701 78.589a7.381 7.381 0 0 0 3.287-.776l88.054-43.748a5.003 5.003 0 0 0 1.311-8.014L387.151 98.43l43.35-43.35a5 5 0 1 0-7.071-7.071l-46.885 46.885a5 5 0 0 0 0 7.071l24.668 24.668-67.381 33.477 35.955-35.955a4.998 4.998 0 0 0 0-7.072L347.273 94.57l61.359-61.359a5 5 0 1 0-7.071-7.071l-64.895 64.895a4.998 4.998 0 0 0 0 7.072l22.514 22.513-43.823 43.824a7.334 7.334 0 0 0-.772 9.502 7.332 7.332 0 0 0 5.966 3.073zM214.84 98.688h30.6v59.723a7.256 7.256 0 0 0 6.106 7.187 7.252 7.252 0 0 0 8.079-4.866L289.9 70.669a5.001 5.001 0 0 0-4.739-6.594h-35.435V5a5 5 0 0 0-10 0v64.076a5 5 0 0 0 5 5h33.479l-22.766 67.722v-48.11a5 5 0 0 0-5-5h-30.6V5a5 5 0 0 0-10 0v88.688c.001 2.761 2.24 5 5.001 5zm131.885 299.485h-12.222a5 5 0 0 1 0-10h12.222c4.575 0 8.911-1.747 12.208-4.917l46.338-44.558-48.222-41.044c.261 3.055.403 6.144.403 9.266 0 59.342-48.203 107.62-107.451 107.62S142.55 366.262 142.55 306.92c0-3.122.141-6.21.403-9.266L94.73 338.698l46.338 44.558a17.529 17.529 0 0 0 12.208 4.917h13.041a5 5 0 0 1 0 10h-13.041a27.486 27.486 0 0 1-19.14-7.709l-50.321-48.388a4.999 4.999 0 0 1 .225-7.411l61.304-52.179C156.422 234.876 199.14 199.3 250 199.3s93.578 35.575 104.656 83.186l61.304 52.179a5.001 5.001 0 0 1 .225 7.411l-50.321 48.388a27.484 27.484 0 0 1-19.139 7.709zm.727-91.254c0-53.828-43.716-97.62-97.451-97.62s-97.451 43.792-97.451 97.62 43.716 97.62 97.451 97.62 97.451-43.792 97.451-97.62zm130.483 26.422c-.621-7.892-4.434-15.361-10.462-20.492L320.794 188.002c-11.812-10.051-29.653-9.351-40.618 1.591a5 5 0 1 0 7.064 7.078c7.307-7.293 19.198-7.754 27.073-1.054l46.473 39.556-9.289 9.999a5 5 0 0 0 7.326 6.806l9.585-10.318 92.582 78.803a20.131 20.131 0 0 1 6.975 13.661 20.133 20.133 0 0 1-4.753 14.584l-92.128 107.484a17.28 17.28 0 0 0-4.157 11.238v9.227a5 5 0 0 0 10 0v-9.227c0-1.733.622-3.414 1.75-4.73l92.128-107.483c5.153-6.009 7.751-13.983 7.13-21.876zM123.074 467.432v9.227a5 5 0 0 0 10 0v-9.227c0-4.119-1.477-8.11-4.157-11.238L36.788 348.709a20.13 20.13 0 0 1-4.753-14.584 20.135 20.135 0 0 1 6.975-13.661l92.582-78.803 9.586 10.318a4.988 4.988 0 0 0 3.664 1.597 5 5 0 0 0 3.662-8.403l-9.289-9.999 46.473-39.556c7.89-6.714 19.793-6.241 27.1 1.08a5 5 0 0 0 7.071.006 4.998 4.998 0 0 0 .006-7.071c-10.965-10.985-28.824-11.702-40.658-1.631L32.529 312.85c-6.028 5.13-9.842 12.6-10.462 20.491-.622 7.893 1.977 15.867 7.129 21.877l92.128 107.484a7.268 7.268 0 0 1 1.75 4.73zm182.609-127.308c5.73 6.594 5.028 16.62-1.565 22.351a15.784 15.784 0 0 1-10.383 3.878c-4.432 0-8.84-1.844-11.968-5.443-8.013-9.22-19.589-14.588-31.766-14.733-12.177.145-23.752 5.513-31.766 14.733-5.73 6.594-15.756 7.296-22.351 1.566-6.594-5.73-7.296-15.757-1.565-22.351 14.023-16.136 34.306-25.479 55.646-25.634a74.514 74.514 0 0 1 55.718 25.633zm-7.548 6.559c-12.142-13.971-29.699-22.06-48.17-22.194-18.399.134-35.957 8.223-48.098 22.194a5.8 5.8 0 0 0-1.418 4.241 5.8 5.8 0 0 0 1.995 4.001 5.85 5.85 0 0 0 8.244-.577c9.898-11.389 24.208-18.013 39.26-18.173h.106c15.052.16 29.362 6.784 39.261 18.173a5.852 5.852 0 0 0 8.244.577 5.804 5.804 0 0 0 1.995-4.001 5.805 5.805 0 0 0-1.419-4.241zm-91.762-47.955c-12.675 0-22.988-10.313-22.988-22.988s10.313-22.988 22.988-22.988 22.988 10.313 22.988 22.988-10.313 22.988-22.988 22.988zm0-10c7.162 0 12.988-5.826 12.988-12.988s-5.826-12.988-12.988-12.988-12.988 5.826-12.988 12.988 5.826 12.988 12.988 12.988zm110.243-12.988c0 12.675-10.313 22.988-22.988 22.988s-22.988-10.313-22.988-22.988 10.313-22.988 22.988-22.988 22.988 10.313 22.988 22.988zm-10 0c0-7.162-5.826-12.988-12.988-12.988s-12.988 5.826-12.988 12.988 5.826 12.988 12.988 12.988 12.988-5.826 12.988-12.988zM157.104 490H76.96a5 5 0 0 0 0 10h80.144a5 5 0 0 0 0-10zm-97.303 0h-3.813a5 5 0 0 0 0 10h3.813a5 5 0 0 0 0-10zm363.24 0h-80.144a5 5 0 0 0 0 10h80.144a5 5 0 0 0 0-10zm20.973 0H440.2a5 5 0 0 0 0 10h3.813a5 5 0 0 0 .001-10z" style="fill:#c89344"/></svg>