<svg version="1.1" id="Layer_1" xmlns="http://www.w3.org/2000/svg" x="0" y="0" viewBox="0 0 500 500" style="enable-background:new 0 0 500 500" xml:space="preserve"><style>.st1{fill: transparent}.st3{fill: transparent}</style><path d="M174.508 350.961v2.256h-14.923a8.577 8.577 0 0 0-8.577 8.577v14.416c0 .867.053 1.721.148 2.562 1.273 11.337 10.887 20.15 22.564 20.15h18.963v54.501h114.636v-54.501h18.952c11.308 0 20.682-8.266 22.419-19.084l.047-.297a22.87 22.87 0 0 0 .245-3.331v-14.416a8.577 8.577 0 0 0-8.577-8.577h-14.911v-2.256c0-1.257-.229-2.457-.629-3.575 18.83-19.069 30.462-45.29 30.462-74.237 0-58.293-47.156-105.55-105.325-105.55s-105.325 47.257-105.325 105.55c0 28.947 11.632 55.168 30.462 74.237a10.535 10.535 0 0 0-.631 3.575z" style="fill: transparent"/><path class="st3" d="M239.361 340.322c4.536 0 8.398 2.844 9.929 6.841h1.421c1.53-3.997 5.393-6.841 9.928-6.841h34.252c3.086-3.521 4.971-8.121 4.971-13.172v-8.204a8.786 8.786 0 0 0-8.786-8.786h-82.152a8.786 8.786 0 0 0-8.786 8.786v8.204c0 5.051 1.885 9.65 4.971 13.172h34.252z"/><path d="M348.98 362.586v13.624c0 12.543-10.168 22.711-22.711 22.711h-18.952v54.501H192.682v-54.501H173.72c-12.543 0-22.712-10.168-22.712-22.712v-13.621c-30.129 4.516-53.244 30.53-53.244 61.981V495h304.47v-70.431c.001-31.455-23.119-57.47-53.254-61.983z" style="fill: transparent"/><circle class="st3" cx="206.372" cy="255.332" r="17.988"/><circle class="st3" cx="293.628" cy="255.332" r="17.988"/><circle class="st1" cx="83.515" cy="65.237" r="60"/><circle class="st1" cx="151.619" cy="143.462" r="16"/><circle transform="rotate(-1.908 415.967 64.724)" class="st1" cx="416.246" cy="64.761" r="59.761"/><circle class="st1" cx="348.618" cy="143.462" r="16"/><circle class="st1" cx="250" cy="65.237" r="60"/><path d="M103.976 320.695v6.534h6.535a5 5 0 1 1 0 10h-6.535v6.534a5 5 0 1 1-10 0v-6.534h-6.535a5 5 0 1 1 0-10h6.535v-6.534a5 5 0 1 1 10 0zm297.048-5.4a5 5 0 0 0-5 5v6.534h-6.535a5 5 0 1 0 0 10h6.535v6.535a5 5 0 1 0 10 0v-6.535h6.535a5 5 0 1 0 0-10h-6.535v-6.534a5 5 0 0 0-5-5zM250 162.599c-60.833 0-110.325 49.593-110.325 110.55 0 22.913 6.937 44.895 20.06 63.568a5.001 5.001 0 0 0 8.182-5.75c-11.934-16.981-18.242-36.975-18.242-57.818 0-55.443 45.006-100.55 100.325-100.55s100.325 45.106 100.325 100.55c0 20.844-6.308 40.837-18.242 57.818a5 5 0 0 0 8.182 5.75c13.124-18.674 20.06-40.655 20.06-63.568 0-60.958-49.492-110.55-110.325-110.55zM440.835 490h-3.813a5 5 0 1 0 0 10h3.813a5 5 0 1 0 0-10zm-20.973 0H80.138a5 5 0 1 0 0 10h339.725a5 5 0 1 0-.001-10zm-356.884 0h-3.813a5 5 0 1 0 0 10h3.813a5 5 0 1 0 0-10zm34.787-8.342a5 5 0 0 0 5-5v-52.089c0-22.214 12.965-42.698 33.03-52.185a5 5 0 0 0-4.274-9.041c-23.543 11.132-38.755 35.164-38.755 61.226v52.089a4.998 4.998 0 0 0 4.999 5zm214.553-77.737V476.658h-10v-18.235H255v18.235a5 5 0 1 1-10 0v-18.235h-47.318v18.235a5 5 0 1 1-10 0v-72.737H173.72c-15.28 0-27.711-12.431-27.711-27.711v-14.416c0-7.486 6.091-13.577 13.577-13.577h10.164c1.3-7.319 7.71-12.895 15.397-12.895h11.394a24.87 24.87 0 0 1-1.402-8.172v-8.204c0-7.602 6.185-13.786 13.786-13.786h82.151c7.602 0 13.786 6.185 13.786 13.786v8.204a24.87 24.87 0 0 1-1.402 8.172h11.394c7.688 0 14.097 5.575 15.397 12.895h10.152c7.486 0 13.577 6.091 13.577 13.577v14.416c0 15.28-12.431 27.711-27.711 27.711h-13.951zm2.536-58.599h-54.215a5.412 5.412 0 0 0-.919.083 5.677 5.677 0 0 0-4.34 3.547c-.004.011-.01.02-.014.03a5.608 5.608 0 0 0-.366 1.979v42.961h52.317l18.951-.001c9.766 0 17.711-7.945 17.711-17.711v-14.416a3.58 3.58 0 0 0-3.577-3.577h-9.911v13.774a5 5 0 1 1-10 0v-21.03a5.643 5.643 0 0 0-5.637-5.639zm-107.277-10h31.785c.511 0 1.019.027 1.522.077.381.037.754.101 1.127.165.108.019.219.028.326.05a15.585 15.585 0 0 1 7.646 3.901l.017.015.017-.015a15.589 15.589 0 0 1 7.646-3.901c.108-.021.218-.031.326-.05.373-.064.746-.128 1.127-.165.503-.05 1.01-.077 1.522-.077h31.785a14.955 14.955 0 0 0 2.438-8.172v-8.204a3.79 3.79 0 0 0-3.786-3.786h-82.151a3.79 3.79 0 0 0-3.786 3.786v8.204c0 2.911.855 5.746 2.439 8.172zm-14.894 58.599.01.001H245v-42.961c0-.697-.133-1.362-.366-1.979-.004-.011-.01-.02-.014-.03a5.674 5.674 0 0 0-4.472-3.568 5.556 5.556 0 0 0-.787-.062h-54.215a5.645 5.645 0 0 0-5.639 5.639v21.03a5 5 0 1 1-10 0v-13.774h-9.922a3.58 3.58 0 0 0-3.577 3.577v14.416c0 9.766 7.945 17.711 17.711 17.711h18.964zM245 448.423v-44.501h-47.317v44.501H245zm57.318 0v-44.501H255v44.501h47.318zm59.488-82.702a4.999 4.999 0 0 0 2.385 6.656c20.074 9.484 33.044 29.972 33.044 52.192v52.089a5 5 0 1 0 10 0v-52.089c0-26.069-15.219-50.105-38.772-61.233a5 5 0 0 0-6.657 2.385zM206.372 232.345c12.675 0 22.988 10.313 22.988 22.987 0 12.676-10.313 22.988-22.988 22.988s-22.988-10.313-22.988-22.988c0-12.675 10.313-22.987 22.988-22.987zm-12.988 22.987c0 7.162 5.826 12.988 12.988 12.988s12.988-5.826 12.988-12.988c0-7.161-5.826-12.987-12.988-12.987s-12.988 5.826-12.988 12.987zm100.244-22.987c12.675 0 22.988 10.313 22.988 22.987 0 12.676-10.313 22.988-22.988 22.988s-22.988-10.313-22.988-22.988c0-12.675 10.313-22.987 22.988-22.987zm0 10c-7.162 0-12.988 5.826-12.988 12.987 0 7.162 5.826 12.988 12.988 12.988s12.988-5.826 12.988-12.988c0-7.161-5.826-12.987-12.988-12.987zm-94.999-22.346c.559 0 1.126-.094 1.682-.292l27.345-9.77a5 5 0 1 0-3.365-9.418l-27.345 9.77a5 5 0 0 0 1.683 9.71zm104.424-9.71-27.345-9.77a5.004 5.004 0 0 0-6.391 3.026 5.002 5.002 0 0 0 3.026 6.392l27.345 9.77a5 5 0 0 0 3.365-9.418zm-151.434-87.827c11.58 0 21 9.421 21 21s-9.42 21-21 21-21-9.421-21-21 9.421-21 21-21zm-11 21c0 6.065 4.935 11 11 11s11-4.935 11-11-4.935-11-11-11-11 4.934-11 11zm-57.103-13.225c-35.841 0-65-29.159-65-65s29.159-65 65-65 65 29.159 65 65-29.159 65-65 65zm0-10c30.327 0 55-24.673 55-55s-24.673-55-55-55-55 24.673-55 55 24.672 55 55 55zm244.102 23.225c0-11.579 9.42-21 21-21s21 9.421 21 21-9.42 21-21 21-21-9.421-21-21zm10 0c0 6.065 4.935 11 11 11s11-4.935 11-11-4.935-11-11-11-11 4.934-11 11zm143.866-78.223c0 35.709-29.052 64.761-64.761 64.761s-64.761-29.052-64.761-64.761S381.014.478 416.723.478s64.761 29.052 64.761 64.761zm-10 0c0-30.195-24.565-54.761-54.761-54.761s-54.761 24.565-54.761 54.761S386.528 120 416.724 120s54.76-24.565 54.76-54.761zM185 65.237c0-35.841 29.159-65 65-65s65 29.159 65 65-29.159 65-65 65-65-29.159-65-65zm10 0c0 30.327 24.673 55 55 55s55-24.673 55-55-24.673-55-55-55-55 24.673-55 55z" style="fill:#c89344"/></svg>