<svg xmlns="http://www.w3.org/2000/svg" width="128" height="128" xml:space="preserve"><path fill="#C28543" d="M74.244 64.247c-3.751-8.248.753-15.716 5.109-22.938 3.283-5.445 6.386-10.588 6.17-15.947-.371-9.204-8.138-17.02-15.258-19.703-11.308-4.26-21.14 1.086-21.237 1.141l-1.944-3.496c.466-.259 11.566-6.295 24.592-1.388C79.998 5.051 89.079 14.277 89.52 25.2c.265 6.559-3.297 12.464-6.741 18.174C78.782 50 75.007 56.26 77.885 62.59l-3.641 1.657z"/><path fill="#C28543" d="M92.006 72.932c-1.295 0-2.797-.186-4.543-.618-7.369-1.831-12.494-5.571-15.231-11.121-5.318-10.783.475-24.34.725-24.912l3.666 1.597c-.092.215-5.282 12.49-.796 21.56 2.193 4.436 6.433 7.462 12.602 8.994 2.583.644 5.919.998 7.13-.963 1.401-2.269-.027-6.797-1.07-8.018-6.128-7.168-5.761-14.051-2.679-17.692 2.786-3.292 7.448-3.831 11.595-1.335 2.341 1.408 4.051 4.254 5.704 7.006 1.954 3.252 3.976 6.615 6.419 6.615v4c-4.707 0-7.438-4.544-9.848-8.555-1.4-2.332-2.85-4.744-4.337-5.639-2.479-1.489-4.961-1.302-6.48.492-1.987 2.349-1.934 7.128 2.667 12.509 1.83 2.142 3.994 8.572 1.432 12.719-1.03 1.663-3.04 3.361-6.956 3.361zM76.622 37.878l-1.833-.798 1.834.796-.001.002zM43.893 44.389l-3.861-10.182 3.74-1.418 2.291 6.042 11.917-5.964 1.791 3.577zM49.673 30.769c-.149-1.337-.456-2.772-.721-3.861l-10.921 2.409-7.193-10.714 2.208-.954c.098-.042 9.86-4.255 17.01-7.178 3.78-1.548 7.138-1.654 9.978-.316 4.032 1.897 5.363 6.03 5.418 6.205l-3.814 1.206c-.009-.027-.902-2.681-3.341-3.808-1.781-.823-4.044-.683-6.727.415-5.054 2.066-11.426 4.783-14.728 6.199l2.989 4.453 11.937-2.633.536 1.774c.041.136 1.011 3.368 1.345 6.359l-3.976.444z"/><path fill="#C28543" d="M42.981 61.478c-.053-.924-.438-9.152 2.234-13.222 4.041-6.153 7.816-10.398 10.572-13.498 2.92-3.283 4.849-5.452 5.2-7.545l3.945.661c-.542 3.229-2.896 5.877-6.155 9.542-2.824 3.175-6.338 7.126-10.218 13.034-1.653 2.517-1.699 8.798-1.585 10.799l-3.993.229zM101.584 128H74.857l6.418-16.81 7.402 2.859c.069-.797.007-1.766-.421-2.719-.797-1.774-2.677-3.145-5.588-4.074-8.318-2.654-10.694-8.606-12.789-13.857-1.125-2.816-2.187-5.477-4.085-7.228-1.553-1.433-11.671-10.504-11.773-10.596l2.669-2.979c.417.374 10.242 9.183 11.816 10.634 2.563 2.366 3.847 5.578 5.087 8.686 1.939 4.858 3.771 9.449 10.292 11.53 4.071 1.299 6.779 3.423 8.049 6.311 1.715 3.904.02 7.654-.054 7.812l-.787 1.701-7.515-2.903-2.913 7.634H98.07l2.974-22.896c-5.226-2.455-8.615-6.07-10.087-10.765-3.271-10.432 4.323-22.246 4.648-22.744l3.35 2.185-1.675-1.092 1.676 1.09c-.069.107-6.891 10.757-4.18 19.378 1.229 3.907 4.323 6.889 9.195 8.863l1.431.58-3.818 29.4z"/><path fill="#C28543" d="m55.292 77.268-23.203-5.447-2.114 3.781-16.976-3.809 5.738-13.107 28.78-.112.016 3.999-26.177.102-2.748 6.277 9.333 2.093 2.129-3.805 23.478 5.51 4.742-6.882 3.293 2.27zM62.056 128H34.569l8.17-15.645 7.391 1.547.498-4.448c-2.204-2.313-8.457-9.722-7.029-18.042 1.072-6.251 6.158-11.394 15.117-15.286l1.594 3.668c-7.635 3.316-11.931 7.448-12.767 12.28-1.334 7.706 6.465 15.112 6.544 15.187l.732.686-1.203 10.771-8.733-1.828-3.713 7.111h18.343l6.729-14.365-4.237-.351.677-7.402 7.771-7.264 2.73 2.922-6.656 6.223-.171 1.867 5.948.493L62.056 128z"/><path fill="#C28543" d="M28.667 59.156c-.225-1.268-3.591-8.639-6.899-15.44h-5.904l-3.39-16.832 15.03 1.106 13.274 18.898-3.273 2.299-12.184-17.346-7.886-.581 1.703 8.456h5.126l.549 1.12c5.204 10.622 7.842 16.731 7.842 18.157h-4c.001.044.001.099.012.163z"/></svg>