<svg xmlns="http://www.w3.org/2000/svg" width="128" height="128" xml:space="preserve"><path fill="#C28543" d="M64.266 60.616c-6.621 0-12.008-5.413-12.008-12.066s5.387-12.066 12.008-12.066 12.009 5.413 12.009 12.066-5.388 12.066-12.009 12.066zm0-20.115c-4.406 0-7.991 3.611-7.991 8.049 0 4.438 3.584 8.049 7.991 8.049s7.991-3.61 7.991-8.049c0-4.438-3.585-8.049-7.991-8.049zM83.001 31.457c-4.792-5.329-11.621-8.385-18.736-8.385-7.123 0-13.955 3.054-18.742 8.379l-2.987-2.685c5.548-6.172 13.468-9.711 21.729-9.711 8.253 0 16.172 3.542 21.724 9.716l-2.988 2.686zM64.258 78.048c-8.252 0-16.169-3.542-21.722-9.718l2.987-2.686c4.792 5.329 11.621 8.387 18.734 8.387 7.123 0 13.955-3.056 18.745-8.381l2.987 2.686c-5.55 6.173-13.47 9.712-21.731 9.712zM29.453 63.89l-2.85-2.831 11.056-11.132-11.056-11.133 2.85-2.83 13.868 13.963z"/><path fill="#C28543" d="M38.718 52.041H21.927c-10.66 0-19.332-8.722-19.332-19.442 0-10.709 8.672-19.421 19.332-19.421v4.017c-8.444 0-15.315 6.91-15.315 15.404 0 8.505 6.871 15.425 15.315 15.425h16.791v4.017zM101.143 63.892 87.272 49.928l13.871-13.963 2.849 2.831-11.056 11.132 11.056 11.133z"/><path fill="#C28543" d="M108.669 52.041H91.876v-4.017h16.793c8.444 0 15.313-6.919 15.313-15.423 0-8.494-6.869-15.404-15.313-15.404V13.18c10.659 0 19.331 8.712 19.331 19.421 0 10.719-8.672 19.44-19.331 19.44z"/><g><path fill="#C28543" d="M110.882 40.482c-4.41-21.037-23.146-36.307-44.549-36.307-21.271 0-39.984 15.157-44.493 36.04l-3.927-.849C22.819 16.647 43.182.158 66.333.158c23.295 0 43.684 16.612 48.48 39.5l-3.931.824zM101.993 127.84h-4.018V82.915l.583-.587c6.955-7.009 11.387-15.869 12.816-25.625l3.974.583c-1.514 10.336-6.126 19.749-13.355 27.275v43.279zM49.646 127.842h-4.017v-15.158H27.333c-8.175 0-14.825-6.686-14.825-14.903V80.918H0l14.275-24.861 3.484 2L6.939 76.9h9.586v20.88c0 6.003 4.849 10.887 10.808 10.887h22.313v19.175z"/></g></svg>