<svg xmlns="http://www.w3.org/2000/svg" width="128" height="128" xml:space="preserve"><path fill="#C28543" d="M56.122 128h-4v-13.201H35.829c-7.47 0-13.547-6.019-13.547-13.416V86.669H10.845l15.312-26.21a38.892 38.892 0 0 1-.028-1.412 43.739 43.739 0 0 1 7.668-24.794l3.302 2.258a39.758 39.758 0 0 0-6.97 22.536c0 .614.022 1.22.049 1.828l.025.588-12.387 21.205h8.466v18.715c0 5.192 4.282 9.416 9.547 9.416h20.293V128zM104.64 128h-4V88.117l.592-.587c7.689-7.621 11.924-17.736 11.924-28.483 0-10.613-4.141-20.635-11.659-28.22l2.84-2.816c8.267 8.339 12.819 19.361 12.819 31.036 0 11.543-4.438 22.422-12.516 30.728V128z"/><path fill="#C28543" d="M52.906 89.899H34.492l3.116-15.325a9.328 9.328 0 0 1-3.467-7.284c0-5.226 4.29-9.477 9.563-9.477 5.271 0 9.559 4.251 9.559 9.477a9.325 9.325 0 0 1-3.465 7.284l3.108 15.325zm-13.518-4h8.626l-2.678-13.207 1.226-.725c1.692-1 2.702-2.749 2.702-4.678 0-3.02-2.493-5.477-5.559-5.477-3.067 0-5.563 2.457-5.563 5.477 0 1.928 1.012 3.677 2.705 4.678l1.226.725-2.685 13.207zM64.969 41.018h4v86.665h-4z"/><path fill="#C28543" d="M66.969 117.274H82.02v4H66.969zM66.969 96.579H82.02v4H66.969zM66.969 106.927h9.162v4h-9.162z"/><g><path fill="#C28543" d="M54.885 52.284c-8.151 0-14.783-6.563-14.783-14.632 0-8.067 6.632-14.631 14.783-14.631 8.15 0 14.781 6.563 14.781 14.631 0 8.069-6.631 14.632-14.781 14.632zm0-25.263c-5.946 0-10.783 4.769-10.783 10.631s4.837 10.632 10.783 10.632c5.945 0 10.781-4.77 10.781-10.632S60.83 27.021 54.885 27.021z"/><path fill="#C28543" d="M81.016 52.284c-8.151 0-14.782-6.563-14.782-14.632 0-8.067 6.631-14.631 14.782-14.631 8.152 0 14.784 6.563 14.784 14.631 0 8.069-6.632 14.632-14.784 14.632zm0-25.263c-5.945 0-10.782 4.769-10.782 10.631s4.837 10.632 10.782 10.632c5.947 0 10.784-4.77 10.784-10.632s-4.837-10.631-10.784-10.631z"/><g><path fill="#C28543" d="M67.95 29.265c-8.15 0-14.782-6.564-14.782-14.633S59.8 0 67.95 0c8.151 0 14.782 6.563 14.782 14.632s-6.63 14.633-14.782 14.633zM67.95 4c-5.945 0-10.782 4.77-10.782 10.632 0 5.863 4.837 10.633 10.782 10.633s10.782-4.77 10.782-10.633C78.732 8.77 73.896 4 67.95 4z"/></g></g></svg>