<svg version="1.1" id="Layer_1" xmlns="http://www.w3.org/2000/svg" x="0" y="0" viewBox="0 0 500 500" style="enable-background:new 0 0 500 500" xml:space="preserve"><style>.st0{fill: transparent}.st2{fill: transparent}</style><path class="st2" d="M283.355 149.916c8.767-8.642 14.209-20.659 14.209-33.953 0-26.312-21.295-47.642-47.563-47.642s-47.563 21.33-47.563 47.642c0 13.294 5.442 25.311 14.209 33.953 10.263-4.31 21.53-6.697 33.355-6.697s23.09 2.386 33.353 6.697zM114.239 156.006H99.523c-.239.155-.483.301-.724.451 13.511-8.404 22.512-23.394 22.512-40.495 0-26.312-21.295-47.642-47.563-47.642-26.269 0-47.563 21.33-47.563 47.642 0 17.103 9.002 32.093 22.514 40.496-.242-.15-.487-.297-.726-.452H33.256C17.651 156.006 5 168.678 5 184.309v77.818h137.495v-77.818c0-15.631-12.651-28.303-28.256-28.303zM466.744 156.006h-14.715c-.239.155-.484.302-.726.452 13.512-8.403 22.514-23.394 22.514-40.496 0-26.312-21.295-47.642-47.563-47.642-26.269 0-47.563 21.33-47.563 47.642 0 17.102 9.001 32.091 22.512 40.495-.242-.15-.486-.296-.724-.451h-14.716c-15.605 0-28.256 12.672-28.256 28.303v77.818H495v-77.818c0-15.631-12.651-28.303-28.256-28.303z"/><ellipse class="st0" cx="250" cy="229.694" rx="86.333" ry="86.475"/><path d="M323.497 302.379h-26.71c-13.481 8.724-29.542 13.791-46.786 13.791s-33.305-5.066-46.786-13.791h-26.71c-28.326 0-51.288 23.001-51.288 51.373V495H374.785V353.751c0-28.372-22.963-51.372-51.288-51.372z" style="fill: transparent"/><path class="st0" d="M125.215 383.98h44.498V495h-44.498zM330.287 383.98h44.498V495h-44.498z"/><path d="M202.425 138.297c-3.31-7.057-4.989-14.571-4.989-22.334 0-29.027 23.58-52.642 52.563-52.642s52.563 23.615 52.563 52.642c0 7.764-1.679 15.278-4.989 22.334a5.001 5.001 0 0 1-9.053-4.247 42.268 42.268 0 0 0 4.042-18.087c0-23.513-19.094-42.642-42.563-42.642s-42.563 19.129-42.563 42.642a42.28 42.28 0 0 0 4.042 18.087 5 5 0 0 1-9.053 4.247zm-164.91 123.83v-79.576a5 5 0 0 0-10 0v79.576a5 5 0 0 0 10 0zm72.465-79.576v79.576a5 5 0 0 0 10 0v-79.576a5 5 0 0 0-10 0zm-76.724-21.545C20.433 161.006 10 171.46 10 184.309v77.818a5 5 0 0 1-10 0v-77.818c0-18.363 14.919-33.303 33.256-33.303h1.311c-8.315-9.315-13.384-21.595-13.384-35.044 0-29.027 23.58-52.642 52.563-52.642s52.563 23.615 52.563 52.642c0 13.448-5.068 25.729-13.384 35.044h1.311c18.337 0 33.256 14.939 33.256 33.303v77.818a5 5 0 0 1-10 0v-77.818c0-12.849-10.433-23.303-23.256-23.303H100.96a52.24 52.24 0 0 1-13.903 5.884c-.115.03-.229.061-.345.09-.787.2-1.578.387-2.374.55l-.058.011a51.341 51.341 0 0 1-2.815.49 51.97 51.97 0 0 1-2.418.305 52.922 52.922 0 0 1-2.903.206c-.797.036-1.596.061-2.397.061s-1.6-.025-2.397-.061c-.204-.009-.407-.02-.611-.031a52.922 52.922 0 0 1-2.292-.175l-.081-.007a53.46 53.46 0 0 1-2.909-.386c-.751-.119-1.5-.25-2.243-.402l-.058-.011a53.036 53.036 0 0 1-2.374-.55l-.345-.09a52.24 52.24 0 0 1-13.903-5.884H33.256zm18.152-8.768c.304.188.612.369.921.55.642.376 1.295.735 1.957 1.078.411.212.822.426 1.24.624a43.583 43.583 0 0 0 2.565 1.112c.331.132.659.27.994.394.758.279 1.524.533 2.297.768.295.09.594.17.892.254a42.58 42.58 0 0 0 1.868.478c.252.059.502.121.755.175.858.182 1.721.34 2.59.469.192.029.387.048.58.074.726.097 1.456.176 2.188.236.251.021.501.042.753.058.91.058 1.823.098 2.741.098s1.831-.04 2.741-.098c.252-.016.502-.037.753-.058.733-.06 1.462-.138 2.188-.236.193-.026.388-.046.58-.074.87-.129 1.733-.287 2.59-.469.253-.054.503-.116.755-.175a42.58 42.58 0 0 0 1.868-.478c.298-.084.597-.164.892-.254a42.36 42.36 0 0 0 2.297-.768c.335-.124.663-.262.994-.394a43.737 43.737 0 0 0 2.565-1.112c.417-.198.828-.412 1.24-.624a42.633 42.633 0 0 0 1.957-1.078c.308-.181.616-.362.921-.55 12.126-7.522 20.224-20.967 20.224-36.276 0-23.513-19.094-42.642-42.563-42.642s-42.567 19.13-42.567 42.642c0 15.309 8.098 28.754 20.224 36.276zM390.02 262.127v-79.576a5 5 0 0 0-10 0v79.576a5 5 0 0 0 10 0zm77.465-84.576a5 5 0 0 0-5 5v79.576a5 5 0 0 0 10 0v-79.576a5 5 0 0 0-5-5zM500 184.309v77.818a5 5 0 0 1-10 0v-77.818c0-12.849-10.433-23.303-23.256-23.303h-13.278a52.24 52.24 0 0 1-13.903 5.884c-.115.03-.229.061-.345.09-.787.2-1.578.387-2.374.55l-.058.011a51.341 51.341 0 0 1-2.815.49 51.97 51.97 0 0 1-2.418.305 52.922 52.922 0 0 1-2.903.206c-.797.036-1.596.061-2.397.061s-1.6-.025-2.397-.061c-.204-.009-.407-.02-.611-.031a52.922 52.922 0 0 1-2.292-.175l-.081-.007a53.46 53.46 0 0 1-2.909-.386c-.751-.119-1.5-.25-2.243-.402l-.058-.011a53.036 53.036 0 0 1-2.374-.55l-.345-.09a52.24 52.24 0 0 1-13.903-5.884h-13.278c-12.824 0-23.256 10.454-23.256 23.303v77.818a5 5 0 0 1-10 0v-77.818c0-18.363 14.919-33.303 33.256-33.303h1.311c-8.315-9.315-13.384-21.595-13.384-35.044 0-29.027 23.58-52.642 52.563-52.642s52.563 23.615 52.563 52.642c0 13.448-5.068 25.729-13.384 35.044h1.311c18.339 0 33.258 14.94 33.258 33.303zm-31.184-68.347c0-23.513-19.094-42.642-42.563-42.642s-42.563 19.129-42.563 42.642c0 15.309 8.098 28.753 20.224 36.276.304.188.612.369.921.55.642.376 1.295.735 1.957 1.078.411.212.822.426 1.24.624a43.583 43.583 0 0 0 2.565 1.112c.331.132.659.27.994.394.758.279 1.524.533 2.297.768.295.09.594.17.892.254a42.58 42.58 0 0 0 1.868.478c.252.059.502.121.755.175.858.182 1.721.34 2.59.469.192.029.387.048.58.074.726.097 1.456.176 2.188.236.251.021.501.042.753.058.91.058 1.823.098 2.741.098s1.831-.04 2.741-.098c.252-.016.502-.037.753-.058.733-.06 1.462-.138 2.188-.236.193-.026.388-.046.58-.074.87-.129 1.733-.287 2.59-.469.253-.054.503-.116.755-.175a42.58 42.58 0 0 0 1.868-.478c.298-.084.597-.164.892-.254a42.36 42.36 0 0 0 2.297-.768c.335-.124.663-.262.994-.394a43.737 43.737 0 0 0 2.565-1.112c.417-.198.828-.412 1.24-.624a42.633 42.633 0 0 0 1.957-1.078c.308-.181.616-.362.921-.55 12.122-7.522 20.22-20.967 20.22-36.276zM238.465 21.535H245v6.534a5 5 0 0 0 10 0v-6.534h6.535a5 5 0 0 0 0-10H255V5a5 5 0 0 0-10 0v6.535h-6.535a5 5 0 0 0 0 10zm-176.252 0h6.535v6.534a5 5 0 0 0 10 0v-6.534h6.535a5 5 0 0 0 0-10h-6.535V5a5 5 0 0 0-10 0v6.535h-6.535a5 5 0 0 0 0 10zm352.505 0h6.535v6.534a5 5 0 0 0 10 0v-6.534h6.535a5 5 0 0 0 0-10h-6.535V5a5 5 0 0 0-10 0v6.535h-6.535a5 5 0 0 0 0 10zM158.667 229.694c0-50.439 40.972-91.475 91.333-91.475s91.333 41.036 91.333 91.475c0 26.797-11.564 50.94-29.957 67.685h12.12c31.038 0 56.289 25.289 56.289 56.373v125.792a5 5 0 0 1-10 0V388.98h-34.498v90.563a5 5 0 0 1-10 0V350.561a5 5 0 0 1 10 0v28.419h34.498v-25.229c0-25.57-20.765-46.373-46.289-46.373H298.24a90.803 90.803 0 0 1-18.85 8.931l-.201.069c-.637.215-1.276.424-1.918.625-.203.064-.407.124-.611.186-.942.287-1.888.56-2.839.816-.409.111-.817.223-1.229.328-.438.112-.877.218-1.317.323-.512.123-1.026.24-1.541.354-.369.082-.738.166-1.108.242-.86.179-1.723.348-2.592.502-.234.042-.47.077-.704.117a90.294 90.294 0 0 1-5.396.752c-.153.017-.306.037-.459.052a91.7 91.7 0 0 1-2.842.248c-.24.017-.48.031-.72.046-.74.048-1.482.086-2.226.116-.269.011-.537.022-.807.031-.958.03-1.917.05-2.882.05s-1.925-.02-2.882-.05c-.269-.009-.538-.02-.807-.031a91.083 91.083 0 0 1-2.226-.116c-.24-.015-.48-.029-.72-.046a91.7 91.7 0 0 1-2.842-.248c-.153-.016-.306-.036-.459-.052a91.953 91.953 0 0 1-5.396-.752c-.235-.04-.47-.075-.704-.117a92.636 92.636 0 0 1-2.592-.502c-.37-.077-.739-.161-1.108-.242a98.404 98.404 0 0 1-2.858-.677c-.411-.105-.82-.218-1.229-.328a92.876 92.876 0 0 1-2.839-.816c-.204-.062-.408-.123-.611-.186a91.283 91.283 0 0 1-1.918-.625l-.201-.069a90.803 90.803 0 0 1-18.85-8.931H176.5c-25.523 0-46.289 20.803-46.289 46.373v25.229h34.498v-28.419a5 5 0 0 1 10 0v128.982a5 5 0 0 1-10 0V388.98h-34.498v90.563a5 5 0 0 1-10 0V353.751c0-31.084 25.251-56.373 56.289-56.373h12.12c-18.389-16.744-29.953-40.887-29.953-67.684zm10 0c0 36.451 24.021 67.386 57.037 77.76l.255.08a80.718 80.718 0 0 0 7.384 1.911c.248.052.497.099.746.149 1 .199 2.006.379 3.018.542.259.042.518.087.778.126 1.201.18 2.409.336 3.626.463.239.025.479.042.718.064a81.213 81.213 0 0 0 4.051.286c1.234.056 2.474.094 3.721.094a83.506 83.506 0 0 0 4.749-.149 81.378 81.378 0 0 0 3.023-.231c.239-.023.479-.039.718-.064a81.398 81.398 0 0 0 3.626-.463c.26-.039.518-.085.777-.126a79.356 79.356 0 0 0 3.019-.542c.249-.049.498-.097.746-.149a80.395 80.395 0 0 0 7.384-1.911l.255-.08c33.016-10.374 57.037-41.309 57.037-77.76 0-44.925-36.486-81.475-81.333-81.475s-81.335 36.55-81.335 81.475zm43.634 1.293c6.898 0 13.311-3.106 17.594-8.521a5 5 0 0 0-7.842-6.204 12.365 12.365 0 0 1-9.751 4.725 12.368 12.368 0 0 1-9.751-4.725 5 5 0 0 0-7.842 6.204c4.283 5.415 10.695 8.521 17.592 8.521zm75.398 0c6.897 0 13.31-3.106 17.594-8.521a5 5 0 0 0-7.842-6.204 12.367 12.367 0 0 1-9.751 4.725 12.365 12.365 0 0 1-9.751-4.725 4.999 4.999 0 0 0-7.023-.819 4.998 4.998 0 0 0-.819 7.023c4.281 5.415 10.694 8.521 17.592 8.521zm-56.845 48.599a4.998 4.998 0 0 0 7.023-.819A15.376 15.376 0 0 1 250 272.893a15.38 15.38 0 0 1 12.124 5.874 4.99 4.99 0 0 0 3.925 1.898 4.999 4.999 0 0 0 3.918-8.102c-4.862-6.146-12.139-9.67-19.966-9.67-7.827 0-15.104 3.524-19.966 9.67a4.998 4.998 0 0 0 .819 7.023zM439.108 490H60.892a5 5 0 0 0 0 10h378.216a5 5 0 0 0 0-10zm-396.63 0h-3.813a5 5 0 0 0 0 10h3.813a5 5 0 0 0 0-10zm418.857 0h-3.813a5 5 0 0 0 0 10h3.813a5 5 0 0 0 0-10z" style="fill:#c89344"/></svg>