<svg xmlns="http://www.w3.org/2000/svg" width="128" height="128" xml:space="preserve"><path fill="#c89344" d="m112.581 96.631-2.901-2.766a15.823 15.823 0 0 0 4.383-10.965V50.462h4.009V82.9a19.817 19.817 0 0 1-5.491 13.731zM75.61 95.703A19.9 19.9 0 0 1 70.946 82.9V50.462h4.009V82.9c0 3.74 1.321 7.369 3.723 10.221l-3.068 2.582z"/><path fill="#c89344" d="m63.372 108.383-3.434-2.07c4.799-7.963 14.321-13.904 25.471-15.891l.703 3.945c-10.028 1.787-18.529 7.028-22.74 14.016zM124.566 108.383c-4.205-6.975-12.688-12.211-22.693-14.006l.709-3.947c11.124 1.998 20.627 7.936 25.418 15.883l-3.434 2.07zM114.924 75.16v-4.01c3.099 0 5.62-2.531 5.62-5.645 0-3.114-2.521-5.647-5.62-5.647V55.85c5.31 0 9.629 4.332 9.629 9.656 0 5.322-4.32 9.654-9.629 9.654zM74.096 75.16c-5.311 0-9.631-4.332-9.631-9.654 0-5.325 4.32-9.656 9.631-9.656v4.009c-3.1 0-5.622 2.534-5.622 5.647 0 3.113 2.522 5.645 5.622 5.645v4.009z"/><path fill="#c89344" d="M93.968 103.477c-5.498 0-9.971-4.486-9.971-9.998v-7.711h4.009v7.711c0 3.301 2.674 5.988 5.962 5.988 3.287 0 5.962-2.688 5.962-5.988v-7.711h4.009v7.711c-.001 5.511-4.474 9.998-9.971 9.998z"/><path fill="#c89344" d="M98.259 88.666H90.76c-10.926 0-19.813-8.914-19.813-19.871V36.356c0-10.957 8.888-19.871 19.813-19.871h7.499c10.925 0 19.813 8.914 19.813 19.871v32.438c-.001 10.958-8.888 19.872-19.813 19.872zM90.76 20.495c-8.715 0-15.805 7.116-15.805 15.862v32.438c0 8.746 7.09 15.861 15.805 15.861h7.499c8.714 0 15.804-7.115 15.804-15.861V36.356c0-8.746-7.09-15.862-15.804-15.862H90.76z"/><path fill="#c89344" d="m118.071 59.946-2.187-.199c-8.443-.77-16.492-7.592-21.374-17.805-4.885 10.213-12.934 17.036-21.378 17.805l-2.187.199V36.357c0-10.957 8.888-19.871 19.813-19.871h7.499c10.925 0 19.813 8.914 19.813 19.87v23.59zM90.76 20.496c-8.715 0-15.805 7.116-15.805 15.862v19.027c7.286-1.797 14.059-9.126 17.666-19.351l1.89-5.361 1.89 5.361c3.606 10.225 10.376 17.554 17.662 19.351V36.356c0-8.746-7.09-15.861-15.804-15.861H90.76zM94.835 79.262h-3.28c-3.689 0-6.691-3.008-6.691-6.703v-5.297h16.662v5.297c-.001 3.695-3.003 6.703-6.691 6.703zm-5.963-7.991v1.287a2.692 2.692 0 0 0 2.683 2.693h3.28a2.691 2.691 0 0 0 2.682-2.693v-1.287h-8.645z"/><g><path fill="#c89344" d="M4.009 111.514H0v-11.072c0-5.988 5.375-10.859 11.982-10.859h43.783v4.008H11.982c-4.396 0-7.973 3.074-7.973 6.852v11.071zM33.872 87.529c-13.396 0-24.293-10.93-24.293-24.367V45.276h4.009v17.886c0 11.226 9.1 20.359 20.285 20.359 11.186 0 20.287-9.133 20.287-20.359V45.648h4.009v17.514c-.002 13.438-10.9 24.367-24.297 24.367z"/><path fill="#c89344" d="M13.389 65.551H1.495V34.397c0-5.525 4.482-10.021 9.993-10.021h4.78a12.257 12.257 0 0 1 9.643-4.679l39.496.001v10.468c0 6.808-5.523 12.347-12.312 12.347H17.007c-1.995 0-3.618 1.631-3.618 3.636v19.402zm-7.886-4.01H9.38V46.15c0-4.215 3.421-7.645 7.627-7.645h36.088c4.579 0 8.304-3.741 8.304-8.338v-6.459h-35.49a8.272 8.272 0 0 0-6.938 3.77l-.594.907h-6.889c-3.3 0-5.984 2.697-5.984 6.012v27.144zM37.764 92.807h4.009v10.346h-4.009zM30.266 92.807h4.009v10.346h-4.009z"/></g><g><path fill="#c89344" d="M34.551 76.861c-5.764 0-10.48-5.041-10.737-11.478L23.73 63.3h21.64l-.083 2.085c-.258 6.435-4.974 11.476-10.736 11.476zm-6.415-9.552c.875 3.232 3.422 5.543 6.415 5.543 2.991 0 5.537-2.311 6.413-5.543H28.136z"/></g></svg>