<svg xmlns="http://www.w3.org/2000/svg" width="128" height="128" xml:space="preserve"><path fill="#fafafa" d="M70.438 124.967H51.215V91.774h19.223v33.193zm-15.226-3.997H66.44V95.771H55.212v25.199zM63.303 83.912h3.998v7.7h-3.998zM54.351 83.912h3.997v7.7h-3.997z"/><path fill="#fafafa" d="M60.853 86.139c-9.464 0-18.346-3.712-25.009-10.452-13.764-13.897-13.769-36.527-.01-50.445 6.639-6.716 15.488-10.429 24.918-10.455 9.521 0 18.389 3.71 25.048 10.446 6.66 6.727 10.33 15.685 10.334 25.224.006 9.533-3.659 18.494-10.322 25.229-6.642 6.715-15.486 10.428-24.905 10.452h-.054zm-.023-67.355c-8.424.024-16.269 3.315-22.153 9.269-12.226 12.367-12.222 32.474.008 44.822 5.908 5.976 13.78 9.266 22.168 9.266v1.999l.046-1.999c8.345-.022 16.184-3.313 22.071-9.265 5.917-5.982 9.173-13.943 9.167-22.417-.004-8.479-3.264-16.439-9.179-22.414-5.903-5.973-13.761-9.261-22.128-9.261z"/><g><path fill="#fafafa" d="M60.801 76.889c-6.979 0-13.543-2.754-18.486-7.752-4.937-4.993-7.654-11.621-7.652-18.662 0-7.027 2.709-13.646 7.627-18.638 4.947-5.025 11.526-7.795 18.525-7.797 6.994 0 13.565 2.754 18.509 7.756 4.938 4.982 7.661 11.611 7.67 18.662.002 7.025-2.705 13.642-7.623 18.633-4.961 5.025-11.547 7.796-18.548 7.798h-.022zm.014-48.851c-5.919.002-11.487 2.347-15.679 6.604-4.177 4.239-6.477 9.862-6.477 15.834-.002 5.982 2.306 11.61 6.497 15.85 4.186 4.234 9.741 6.565 15.644 6.565v1.999l.02-1.999c5.924-.002 11.501-2.348 15.703-6.606 4.175-4.237 6.475-9.856 6.473-15.823-.007-5.99-2.321-11.621-6.515-15.854-4.187-4.238-9.751-6.57-15.666-6.57z"/></g><g><path fill="#fafafa" d="M124.733 44.582C107.66 20.367 85.085 7.031 61.168 7.031V3.033c25.254 0 48.989 13.938 66.832 39.246l-3.267 2.303z"/></g><g><path fill="#fafafa" d="m94.268 76.462-2.064-3.422c9.333-5.635 17.816-13.674 25.231-23.908-15.374-21.22-35.31-32.886-56.266-32.886-20.958 0-40.894 11.666-56.267 32.886 7.254 10.017 15.548 17.938 24.67 23.561l-2.098 3.402C17.543 69.974 8.572 61.29.813 50.284L0 49.132l.813-1.151c16.251-23.042 37.686-35.732 60.356-35.732 22.669 0 44.104 12.69 60.357 35.732l.812 1.151-.813 1.152c-7.928 11.238-17.099 20.047-27.257 26.178z"/></g></svg>