<svg version="1.1" id="Layer_1" xmlns="http://www.w3.org/2000/svg" x="0" y="0" viewBox="0 0 500 500" style="enable-background:new 0 0 500 500" xml:space="preserve"><style>.st2{fill: transparent}.st3{fill: transparent}</style><ellipse class="st2" cx="260.93" cy="181.423" rx="102.041" ry="102.209"/><path class="st3" d="M260.93 110.436c-13.571 0-24.182 11.705-22.855 25.211l4.384 44.606c.934 9.502 8.924 16.745 18.471 16.745s17.537-7.243 18.471-16.745l4.384-44.606c1.327-13.506-9.284-25.211-22.855-25.211z"/><circle class="st3" cx="260.93" cy="235.935" r="16.476"/><path d="M347.799 267.333h-31.57c-15.934 10.311-34.917 16.3-55.298 16.3s-39.365-5.988-55.299-16.3h-41.293c-33.479 0-60.62 27.185-60.62 60.72v107.67c0 8.583 6.947 15.541 15.516 15.541h10.781V495H408.42V328.052c-.001-33.534-27.141-60.719-60.621-60.719z" style="fill: transparent"/><path class="st2" d="m308.517 357.751-11.841-23.973c-3.108-6.292-10.719-8.877-17-5.775l-16.988 8.391-4.013-8.124c-3.208-6.496-11.076-9.161-17.572-5.953l-32.166 15.888c-10.244 5.06-14.447 17.466-9.387 27.71l1.021 2.068a8.017 8.017 0 0 1-3.637 10.737l-39.818 19.496v-34.435h-53.399v71.941c0 8.583 6.947 15.541 15.515 15.541h23.607c4.894 0 9.72-1.143 14.094-3.337l145.835-73.165c6.284-3.102 8.856-10.718 5.749-17.01zM355.825 363.781h52.594V495h-52.594z"/><path d="M239.534 16.535a5 5 0 0 1 5-5h6.534V5a5 5 0 1 1 10 0v6.535h6.535a5 5 0 1 1 0 10h-6.535v6.534a5 5 0 1 1-10 0v-6.534h-6.534a5 5 0 0 1-5-5zm-71.128 5h6.535v6.534a5 5 0 0 0 10 0v-6.534h6.535a5 5 0 0 0 0-10h-6.535V5a5 5 0 0 0-10 0v6.535h-6.535a5 5 0 0 0 0 10zm152.257 0h6.534v6.534a5 5 0 1 0 10 0v-6.534h6.534a5 5 0 1 0 0-10h-6.534V5a5 5 0 1 0-10 0v6.535h-6.534a5 5 0 1 0 0 10zM98.719 435.833V328.052c0-36.238 29.437-65.72 65.62-65.72h26.439c-22.586-19.671-36.889-48.648-36.889-80.909 0-59.115 48.019-107.209 107.042-107.209 59.022 0 107.041 48.094 107.041 107.209 0 32.261-14.303 61.239-36.889 80.909h16.716c36.183 0 65.62 29.482 65.62 65.72v151.491a5 5 0 1 1-10 0V368.781h-42.594v110.763a5 5 0 1 1-10 0V324.281a5 5 0 1 1 10 0v34.5h42.594v-30.728c0-30.724-24.951-55.72-55.62-55.72h-30.112a106.43 106.43 0 0 1-22.354 10.619l-.154.053c-.739.25-1.481.492-2.225.725-.267.084-.536.164-.803.246a105.67 105.67 0 0 1-3.132.903c-.519.142-1.037.285-1.559.419-.503.128-1.007.249-1.512.37-.607.146-1.215.286-1.826.422-.434.096-.867.194-1.303.285-1.013.212-2.03.411-3.053.594-.245.044-.492.081-.737.123a102.145 102.145 0 0 1-3.623.556c-.914.124-1.831.237-2.751.338-.197.022-.392.047-.589.068-1.108.115-2.222.211-3.339.292-.274.02-.549.035-.824.052-.876.057-1.755.103-2.636.138a108.888 108.888 0 0 1-4.336.095 108.942 108.942 0 0 1-4.336-.095c-.881-.035-1.759-.081-2.635-.138-.275-.018-.551-.033-.826-.053-1.117-.081-2.23-.177-3.337-.292-.199-.021-.397-.047-.596-.068a106.878 106.878 0 0 1-6.357-.892c-.251-.043-.503-.081-.753-.125-1.02-.182-2.033-.381-3.043-.592-.442-.092-.881-.191-1.322-.289-.602-.134-1.203-.272-1.801-.416-.511-.123-1.022-.245-1.531-.375-.499-.128-.995-.265-1.491-.4-1.08-.293-2.154-.602-3.224-.929-.253-.078-.507-.153-.76-.233a109.343 109.343 0 0 1-2.361-.771 106.433 106.433 0 0 1-22.384-10.63h-39.835c-30.669 0-55.62 24.996-55.62 55.72v30.729h43.398v-34.5a5 5 0 0 1 10 0v65.92l32.619-15.971c1.476-.729 2.089-2.541 1.353-4.032l-1.021-2.068c-3.039-6.152-3.5-13.119-1.298-19.618 2.202-6.499 6.802-11.751 12.954-14.79l32.166-15.888a18.002 18.002 0 0 1 13.838-.916 18.004 18.004 0 0 1 10.432 9.137l1.798 3.641 12.505-6.177c8.741-4.318 19.373-.711 23.697 8.043L313 355.537c4.323 8.754.728 19.389-8.016 23.707l-145.807 73.151a36.6 36.6 0 0 1-16.336 3.868h-7.826v23.28a5 5 0 0 1-10 0v-23.28h-5.892c-11.251 0-20.404-9.165-20.404-20.43zm133.033-161.694c.204.064.408.13.613.193.625.193 1.251.381 1.881.562.369.105.739.204 1.109.305.838.23 1.681.448 2.528.655a92.968 92.968 0 0 0 2.936.672c.712.15 1.425.293 2.141.427.26.049.518.103.779.15a94.96 94.96 0 0 0 2.913.473c.301.045.603.085.905.127.799.111 1.599.212 2.402.302.243.027.484.058.728.084 1.021.108 2.045.2 3.071.275.213.016.427.027.641.041a98.01 98.01 0 0 0 3.395.17c1.044.033 2.089.056 3.137.056s2.093-.023 3.137-.056c.284-.009.567-.021.851-.032.85-.035 1.699-.08 2.546-.137.213-.014.426-.025.638-.041a98.252 98.252 0 0 0 3.074-.276c.241-.025.481-.056.721-.083a96.765 96.765 0 0 0 2.411-.304c.299-.042.598-.082.897-.126.976-.145 1.95-.301 2.921-.475.253-.046.504-.098.757-.146a98.8 98.8 0 0 0 3.427-.707c.566-.128 1.13-.264 1.693-.401.817-.2 1.63-.411 2.439-.632.395-.108.791-.214 1.185-.326.62-.178 1.237-.363 1.852-.553.219-.067.437-.137.655-.206 39.282-12.444 67.838-49.297 67.838-92.708 0-53.601-43.532-97.209-97.041-97.209s-97.042 43.608-97.042 97.209c-.001 43.422 28.567 80.281 67.862 92.717zm-123.033 94.642v66.941c0 5.812 4.717 10.541 10.515 10.541h23.608c4.094 0 8.192-.97 11.852-2.806l145.835-73.165a7.711 7.711 0 0 0 3.505-10.327l-11.841-23.973c-1.882-3.809-6.501-5.383-10.304-3.506l-16.987 8.391-29.935 14.786a5 5 0 0 1-4.428-8.966l25.452-12.571-1.799-3.641a8.062 8.062 0 0 0-4.674-4.094 8.066 8.066 0 0 0-6.2.41l-32.166 15.888a15.589 15.589 0 0 0-7.912 9.032 15.587 15.587 0 0 0 .793 11.981l1.021 2.068c3.178 6.435.529 14.255-5.906 17.434l-39.833 19.503a5 5 0 0 1-7.199-4.49v-29.435h-43.397zM233.1 136.136a28.014 28.014 0 0 1 7.112-21.517 28.017 28.017 0 0 1 20.719-9.183 28.018 28.018 0 0 1 20.718 9.182 28.013 28.013 0 0 1 7.112 21.518l-4.384 44.606a23.478 23.478 0 0 1-23.446 21.256 23.479 23.479 0 0 1-23.447-21.256l-4.384-44.606zm9.952-.978 4.384 44.606c.685 6.974 6.487 12.234 13.495 12.234s12.81-5.259 13.495-12.234l4.384-44.606c.502-5.11-1.121-10.019-4.569-13.823-3.449-3.804-8.176-5.899-13.31-5.899-5.135 0-9.862 2.095-13.311 5.899s-5.071 8.713-4.568 13.823zm39.354 100.777c0 11.842-9.634 21.476-21.476 21.476s-21.476-9.634-21.476-21.476c0-11.842 9.634-21.476 21.476-21.476s21.476 9.634 21.476 21.476zm-10 0c0-6.328-5.147-11.476-11.476-11.476s-11.476 5.148-11.476 11.476c0 6.328 5.148 11.476 11.476 11.476s11.476-5.148 11.476-11.476zM446.904 490h-3.813a5 5 0 1 0 0 10h3.813a5 5 0 1 0 0-10zm-20.973 0H86.207a5 5 0 0 0 0 10h339.724a5 5 0 1 0 0-10zm-356.884 0h-3.813a5 5 0 0 0 0 10h3.813a5 5 0 0 0 0-10z" style="fill:#c89344"/></svg>