<svg version="1.1" id="Layer_1" xmlns="http://www.w3.org/2000/svg" x="0" y="0" viewBox="0 0 500 500" style="enable-background:new 0 0 500 500" xml:space="preserve"><style>.st2{fill: transparent}.st3{fill: transparent}</style><path d="M335.896 267.333h-31.602c-15.919 10.298-34.868 16.3-55.226 16.3s-39.306-6.001-55.225-16.3h-31.602c-33.464 0-60.591 27.185-60.591 60.72v97.677c0 11.106 9.002 20.109 20.106 20.109h4.436V495h245.752v-49.162h4.436c11.104 0 20.106-9.003 20.106-20.109v-97.677c.001-33.534-27.127-60.719-60.59-60.719z" style="fill: transparent"/><path class="st2" d="M339.198 350.723v44.434H158.71v-44.434h-57.06v75.006c0 11.106 9.002 20.109 20.106 20.109H376.38c11.104 0 20.106-9.003 20.106-20.109v-75.006h-57.288z"/><ellipse class="st2" cx="249.069" cy="181.423" rx="101.992" ry="102.209"/><circle class="st3" cx="206.373" cy="159.883" r="17.988"/><circle class="st3" cx="293.629" cy="159.883" r="17.988"/><path d="M117.076 181.423c0-72.9 59.212-132.209 131.992-132.209S381.06 108.523 381.06 181.423a5 5 0 1 1-10 0c0-67.386-54.726-122.209-121.992-122.209s-121.992 54.823-121.992 122.209a5 5 0 1 1-10 0zm202.113 80.91h16.707c36.167 0 65.591 29.482 65.591 65.72v97.68c0 13.654-10.959 24.79-24.542 25.092v25.834a5 5 0 1 1-10 0v-25.82H258.576a5 5 0 1 1 0-10h117.805c8.329 0 15.105-6.776 15.105-15.106v-70.009h-47.288v39.434a5 5 0 0 1-5 5h-35.724a36.705 36.705 0 0 0-24.746 9.57l-31.815 28.938a46.683 46.683 0 0 1-31.475 12.173h-84.246v25.82a5 5 0 1 1-10 0v-25.834c-13.584-.304-24.542-11.44-24.542-25.095v-97.677c0-36.238 29.424-65.72 65.591-65.72h16.707c-22.576-19.671-36.872-48.648-36.872-80.909 0-59.115 47.996-107.209 106.992-107.209S356.06 122.309 356.06 181.424c.001 32.261-14.295 61.238-36.871 80.909zm-121.132 1.732c.292.182.582.367.875.544a93.48 93.48 0 0 0 2.664 1.556c.448.253.895.507 1.347.753.744.404 1.492.798 2.245 1.182.372.19.747.374 1.122.559.594.293 1.19.581 1.79.861.304.143.608.289.914.428.878.4 1.761.787 2.649 1.16.248.104.499.205.748.307.769.315 1.541.622 2.318.917.206.079.411.159.618.236.982.366 1.969.717 2.961 1.05.1.034.201.065.302.099.936.311 1.876.606 2.821.888l.435.13a96.48 96.48 0 0 0 6.317 1.621l.392.086c2.128.46 4.272.849 6.432 1.166l.462.065c.96.136 1.924.258 2.889.365.132.015.263.031.396.045 1.064.113 2.131.209 3.2.288.169.012.34.021.509.033.882.06 1.766.106 2.651.143.271.011.542.022.814.031 1.045.034 2.092.056 3.142.056 1.049 0 2.096-.022 3.142-.056.272-.009.543-.021.814-.031a97.02 97.02 0 0 0 2.649-.143c.17-.012.342-.021.512-.033a94.44 94.44 0 0 0 3.198-.288c.134-.014.268-.031.402-.046a95.49 95.49 0 0 0 2.879-.364l.471-.066a96.3 96.3 0 0 0 6.42-1.164l.408-.089a96.593 96.593 0 0 0 9.544-2.63c.11-.037.221-.071.331-.108a96.127 96.127 0 0 0 2.944-1.044c.216-.081.43-.165.645-.247a94.827 94.827 0 0 0 2.282-.903c.258-.106.517-.209.774-.317a98.88 98.88 0 0 0 2.632-1.152c.316-.144.628-.294.942-.441a97.651 97.651 0 0 0 1.757-.846c.381-.188.763-.376 1.142-.569a96.685 96.685 0 0 0 2.184-1.15c.474-.257.943-.523 1.412-.788a94.638 94.638 0 0 0 2.654-1.55c.288-.175.573-.356.86-.535 27.584-17.159 45.993-47.789 45.993-82.65 0-53.601-43.511-97.209-96.992-97.209s-96.992 43.608-96.992 97.209c-.001 34.856 18.403 65.481 45.98 82.641zm106.696 8.87c-.265.163-.532.321-.798.481-.958.575-1.923 1.135-2.896 1.678-.399.224-.798.45-1.2.668a116.233 116.233 0 0 1-2.995 1.559c-.44.221-.879.444-1.322.659-.882.428-1.771.844-2.667 1.248-.345.156-.693.305-1.039.457-.705.309-1.415.611-2.128.906-.318.131-.636.264-.956.392-1.01.406-2.026.8-3.051 1.175-.084.031-.169.059-.253.089a105.025 105.025 0 0 1-3.646 1.246c-2.197.709-4.424 1.35-6.68 1.918l-.374.091c-1.051.261-2.107.505-3.17.734l-.335.073c-2.285.484-4.598.894-6.934 1.229l-.587.083c-1.083.149-2.169.285-3.262.402l-.192.022c-1.148.12-2.302.22-3.461.303-.235.017-.47.03-.706.045-.907.06-1.817.107-2.729.144-.303.012-.607.025-.91.035-1.127.035-2.257.059-3.392.059s-2.265-.024-3.392-.059c-.303-.01-.606-.023-.91-.035-.913-.036-1.824-.084-2.731-.144-.234-.015-.469-.028-.703-.044a107.074 107.074 0 0 1-3.464-.304c-.062-.006-.123-.015-.184-.021a106.703 106.703 0 0 1-3.273-.403c-.193-.026-.385-.054-.577-.081-2.34-.336-4.656-.746-6.945-1.231l-.316-.069a109.77 109.77 0 0 1-3.196-.74l-.353-.086a105.202 105.202 0 0 1-7.336-2.131 107.991 107.991 0 0 1-3.027-1.045l-.217-.077a107.993 107.993 0 0 1-3.069-1.182c-.311-.125-.62-.254-.93-.381-.725-.3-1.447-.607-2.164-.922-.337-.147-.675-.292-1.01-.443-.901-.407-1.795-.825-2.683-1.256-.435-.211-.866-.431-1.299-.647a111.455 111.455 0 0 1-3.006-1.563c-.415-.226-.825-.458-1.237-.688a103.475 103.475 0 0 1-2.86-1.658c-.269-.162-.538-.322-.805-.486-.331-.203-.667-.395-.997-.601h-30.145c-30.653 0-55.591 24.996-55.591 55.72v17.67h47.061v-31.42a5 5 0 1 1 10 0v75.854h96.814a5 5 0 1 1 0 10H158.711a5 5 0 0 1-5-5v-39.434H106.65v70.006c0 8.331 6.778 15.109 15.109 15.109h93.679a36.705 36.705 0 0 0 24.746-9.57L272 402.33a46.683 46.683 0 0 1 31.475-12.173h30.724v-75.854a5 5 0 1 1 10 0v31.42h47.288v-17.67c0-30.724-24.938-55.72-55.591-55.72h-30.145c-.33.207-.667.398-.998.602zm116.733 147.797a5 5 0 0 0-5 5c0 16.004-9.514 30.461-24.236 36.832a5 5 0 0 0 1.988 9.59c.662 0 1.336-.133 1.982-.413 18.386-7.955 30.266-26.015 30.266-46.01a5 5 0 0 0-5-4.999zm-54.265-177.808a5 5 0 0 0-3.471 9.378c31.543 11.675 52.736 42.117 52.736 75.75a5 5 0 1 0 10 0c0-37.797-23.817-72.007-59.265-85.128zM76.65 333.053a5 5 0 0 0 5-5c0-33.034 19.787-62.413 50.41-74.848a5 5 0 1 0-3.762-9.265c-34.412 13.973-56.648 46.99-56.648 84.113a5 5 0 0 0 5 5zm25.818 138.923a5.001 5.001 0 0 0 3.861-9.225c-14.992-6.275-24.679-20.807-24.679-37.022a5 5 0 1 0-10 0c0 20.258 12.097 38.411 30.818 46.247zM440.836 490h-3.813a5 5 0 1 0 0 10h3.813a5 5 0 1 0 0-10zm-20.973 0H80.139a5 5 0 1 0 0 10h339.725a5 5 0 1 0-.001-10zm-356.884 0h-3.813a5 5 0 1 0 0 10h3.813a5 5 0 1 0 0-10zM238.467 21.535h6.534v6.534a5 5 0 1 0 10 0v-6.534h6.534a5 5 0 1 0 0-10h-6.534V5a5 5 0 1 0-10 0v6.535h-6.534a5 5 0 1 0 0 10zm-76.129 0h6.534v6.534a5 5 0 1 0 10 0v-6.534h6.535a5 5 0 1 0 0-10h-6.535V5a5 5 0 1 0-10 0v6.535h-6.534a5 5 0 1 0 0 10zm152.257 0h6.535v6.534a5 5 0 1 0 10 0v-6.534h6.534a5 5 0 1 0 0-10h-6.534V5a5 5 0 1 0-10 0v6.535h-6.535a5 5 0 1 0 0 10zM183.386 159.883c0-12.675 10.313-22.988 22.987-22.988s22.987 10.313 22.987 22.988-10.313 22.988-22.987 22.988-22.987-10.313-22.987-22.988zm10 0c0 7.162 5.826 12.988 12.987 12.988s12.987-5.826 12.987-12.988-5.826-12.988-12.987-12.988-12.987 5.826-12.987 12.988zm77.256 0c0-12.675 10.313-22.988 22.987-22.988s22.987 10.313 22.987 22.988-10.313 22.988-22.987 22.988-22.987-10.313-22.987-22.988zm10 0c0 7.162 5.826 12.988 12.987 12.988s12.987-5.826 12.987-12.988-5.826-12.988-12.987-12.988-12.987 5.826-12.987 12.988zm-54.928 67.245a16.506 16.506 0 0 0-13.014-6.302 16.506 16.506 0 0 0-13.015 6.302 5 5 0 0 0 .82 7.023 4.999 4.999 0 0 0 7.023-.819 6.558 6.558 0 0 1 5.171-2.506 6.56 6.56 0 0 1 5.17 2.506 16.506 16.506 0 0 0 13.014 6.302c5.103 0 9.846-2.297 13.015-6.302 1.26-1.593 3.144-2.506 5.17-2.506s3.911.914 5.171 2.506a16.506 16.506 0 0 0 13.014 6.302c5.103 0 9.846-2.297 13.015-6.302a6.558 6.558 0 0 1 5.17-2.506c2.026 0 3.911.914 5.172 2.507a5 5 0 0 0 7.841-6.206 16.51 16.51 0 0 0-13.014-6.301 16.506 16.506 0 0 0-13.014 6.302c-1.26 1.593-3.145 2.506-5.171 2.506s-3.91-.914-5.17-2.506a16.506 16.506 0 0 0-13.015-6.302 16.506 16.506 0 0 0-13.014 6.302c-1.26 1.593-3.145 2.506-5.171 2.506s-3.908-.913-5.168-2.506zM76.65 415.498a5 5 0 0 0 5-5v-3.278a5 5 0 1 0-10 0v3.278a5 5 0 0 0 5 5zm344.836-13.278a5 5 0 0 0-5 5v3.278a5 5 0 1 0 10 0v-3.278a5 5 0 0 0-5-5zm-299.41-195.851a5 5 0 0 0 5-5v-3.212a5 5 0 1 0-10 0v3.212a5 5 0 0 0 5 5zm253.985-13.212a5 5 0 0 0-5 5v3.212a5 5 0 1 0 10 0v-3.212a5 5 0 0 0-5-5z" style="fill:#c89344"/></svg>